<?xml version="1.0" encoding="utf-8"?>
<!-- Generator: Adobe Illustrator 27.5.0, SVG Export Plug-In . SVG Version: 6.00 Build 0)  -->
<svg version="1.1" xmlns="http://www.w3.org/2000/svg" xmlns:xlink="http://www.w3.org/1999/xlink" x="0px" y="0px"
	 viewBox="0 0 750 500" style="enable-background:new 0 0 750 500;" xml:space="preserve">
<g id="Background_Complete">
	<g>
		
			<ellipse transform="matrix(0.2294 -0.9733 0.9733 0.2294 293.5877 593.3672)" style="fill:#E0E0E0;" cx="521.545" cy="111.263" rx="40.243" ry="40.243"/>
		<g>
			<path style="fill:#FAFAFA;" d="M539.817,112.501c0,0.033-0.503,0.065-1.422,0.094c-1.006,0.02-2.319,0.047-3.911,0.079
				c-3.319,0.046-7.943,0.077-13.163,0.085l-0.258,0l0-0.259c-0.001-0.835-0.001-1.716-0.002-2.61c0-5.83,0.029-11.106,0.076-14.926
				c0.034-1.842,0.062-3.366,0.083-4.523c0.031-1.068,0.065-1.659,0.101-1.659c0.036,0,0.07,0.59,0.101,1.659
				c0.021,1.158,0.049,2.682,0.083,4.523c0.047,3.82,0.076,9.096,0.076,14.926c-0.001,0.894-0.001,1.774-0.002,2.61l-0.258-0.258
				c5.22,0.008,9.844,0.039,13.163,0.085c1.592,0.032,2.905,0.059,3.911,0.079C539.314,112.436,539.817,112.468,539.817,112.501z"/>
		</g>
		<g>
			<path style="fill:#FAFAFA;" d="M521.445,77.631c0.144,0,0.26,1.514,0.26,3.38c0,1.867-0.117,3.381-0.26,3.381
				c-0.144,0-0.26-1.513-0.26-3.381C521.185,79.144,521.301,77.631,521.445,77.631z"/>
		</g>
		<g>
			<path style="fill:#FAFAFA;" d="M539.781,83.06c0.102,0.102-0.871,1.239-2.172,2.54c-1.302,1.301-2.439,2.274-2.54,2.172
				c-0.102-0.102,0.871-1.239,2.172-2.54C538.542,83.93,539.68,82.958,539.781,83.06z"/>
		</g>
		<g>
			<path style="fill:#FAFAFA;" d="M550.502,94.772c0.066,0.131-1.211,0.899-2.773,1.851c-1.565,0.949-2.834,1.728-2.92,1.609
				c-0.083-0.113,1.064-1.093,2.65-2.054C549.042,95.213,550.44,94.646,550.502,94.772z"/>
		</g>
		<g>
			<path style="fill:#FAFAFA;" d="M556.786,112.152c0,0.144-2.064,0.26-4.609,0.26c-2.546,0-4.61-0.117-4.61-0.26
				s2.064-0.26,4.61-0.26C554.722,111.892,556.786,112.008,556.786,112.152z"/>
		</g>
		<g>
			<path style="fill:#FAFAFA;" d="M492.865,111.537c0,0.144-1.949,0.26-4.353,0.26c-2.405,0-4.354-0.117-4.354-0.26
				c0-0.144,1.949-0.26,4.354-0.26C490.915,111.277,492.865,111.394,492.865,111.537z"/>
		</g>
		<g>
			<path style="fill:#FAFAFA;" d="M497.385,124.477c0.094,0.109-1.378,1.445-3.289,2.984c-1.912,1.54-3.531,2.694-3.617,2.579
				c-0.086-0.115,1.387-1.451,3.29-2.984C495.672,125.523,497.291,124.368,497.385,124.477z"/>
		</g>
		<g>
			<path style="fill:#FAFAFA;" d="M508.538,134.484c0.12,0.088-0.972,1.767-2.239,3.881c-1.272,2.111-2.243,3.864-2.376,3.799
				c-0.126-0.059,0.644-1.932,1.93-4.067C507.134,135.96,508.427,134.4,508.538,134.484z"/>
		</g>
		<g>
			<path style="fill:#FAFAFA;" d="M521.445,147.391c-0.144,0-0.26-2.064-0.26-4.609c0-2.546,0.117-4.61,0.26-4.61
				c0.144,0,0.26,2.063,0.26,4.61C521.705,145.327,521.589,147.391,521.445,147.391z"/>
		</g>
		<g>
			<path style="fill:#FAFAFA;" d="M541.315,141.249c-0.073,0.116-1.877-0.921-3.8-2.604c-1.93-1.677-3.203-3.322-3.098-3.41
				c0.113-0.1,1.541,1.368,3.44,3.017C539.75,139.909,541.398,141.123,541.315,141.249z"/>
		</g>
		<g>
			<path style="fill:#FAFAFA;" d="M550.64,131.205c-0.102,0.102-1.468-1.1-3.052-2.684c-1.584-1.584-2.786-2.951-2.684-3.052
				s1.468,1.1,3.052,2.684C549.539,129.737,550.741,131.104,550.64,131.205z"/>
		</g>
		<g>
			<path style="fill:#FAFAFA;" d="M496.962,99.142c-0.102,0.102-1.308-0.94-2.694-2.326c-1.386-1.386-2.427-2.592-2.326-2.694
				c0.102-0.102,1.308,0.939,2.694,2.326C496.023,97.835,497.064,99.041,496.962,99.142z"/>
		</g>
		<g>
			<path style="fill:#FAFAFA;" d="M508.471,87.019c-0.102,0.102-1.287-0.914-2.648-2.268c-1.361-1.355-2.382-2.536-2.28-2.638
				c0.101-0.102,1.287,0.914,2.648,2.269C507.551,85.736,508.572,86.917,508.471,87.019z"/>
		</g>
	</g>
	<g>
		<g>
			<g>
				<path style="fill:#E0E0E0;" d="M58.411,205.649c0,0,0.227-0.017,0.643-0.026c0.441-0.008,1.05-0.018,1.831-0.032
					c1.621-0.02,3.952-0.048,6.911-0.084c5.954-0.051,14.43-0.125,24.648-0.213l-0.215,0.217
					c-0.063-12.277-0.138-27.056-0.22-42.961c-0.056-0.061,0.493,0.487,0.256,0.256h-0.009l-0.018,0l-0.036,0l-0.072,0l-0.144,0.001
					l-0.288,0.001l-0.574,0.002l-1.146,0.005c-0.762,0.003-1.522,0.006-2.278,0.009c-1.513,0.006-3.014,0.011-4.501,0.017
					c-2.974,0.01-5.894,0.021-8.748,0.03c-5.705,0.016-11.143,0.032-16.215,0.046l0.232-0.234
					c0.004,12.716,0.007,23.423,0.01,30.981c-0.011,3.764-0.02,6.743-0.026,8.812c-0.008,1.005-0.014,1.787-0.018,2.347
					c-0.005,0.252-0.008,0.451-0.011,0.61C58.419,205.572,58.415,205.645,58.411,205.649c-0.005,0.005-0.009-0.059-0.014-0.189
					c-0.004-0.152-0.009-0.343-0.016-0.584c-0.009-0.549-0.021-1.316-0.037-2.301c-0.023-2.056-0.056-5.017-0.098-8.759
					c-0.059-7.596-0.144-18.354-0.244-31.132L58,162.452l0.234-0.001c5.072-0.027,10.51-0.056,16.215-0.086
					c2.853-0.013,5.773-0.027,8.748-0.041c1.487-0.007,2.988-0.013,4.501-0.02c0.757-0.003,1.516-0.006,2.278-0.01l1.146-0.005
					l0.574-0.002l0.287-0.001l0.144-0.001l0.072,0l0.036,0h0.018l0.009,0c-0.23-0.232,0.325,0.315,0.267,0.263
					c0.049,15.905,0.094,30.684,0.131,42.961l0.001,0.217l-0.216,0c-10.274-0.005-18.798-0.008-24.785-0.011
					c-2.939-0.012-5.253-0.021-6.863-0.028c-0.763-0.007-1.359-0.013-1.79-0.017C58.606,205.664,58.411,205.649,58.411,205.649z"/>
			</g>
		</g>
		<g>
			
				<rect x="73.281" y="204.615" transform="matrix(1 -0.0041 0.0041 1 -0.8373 0.3106)" style="fill:#EBEBEB;" width="4.721" height="1.146"/>
		</g>
		<g>
			
				<rect x="70.398" y="177.647" transform="matrix(1 -0.0041 0.0041 1 -0.7561 0.3104)" style="fill:#E0E0E0;" width="10.323" height="14.909"/>
		</g>
		<g>
			
				<rect x="73.773" y="162.028" transform="matrix(1 -0.0041 0.0041 1 -0.662 0.3118)" style="fill:#EBEBEB;" width="4.721" height="0.981"/>
		</g>
	</g>
	<g>
		<g>
			
				<rect x="609.579" y="88.944" transform="matrix(0.9955 -0.0944 0.0944 0.9955 -6.7125 59.6745)" style="fill:#FFFFFF;" width="35.045" height="23.622"/>
			<g>
				<path style="fill:#E0E0E0;" d="M645.662,110.858c-0.008-0.007-0.03-0.157-0.065-0.442c-0.036-0.315-0.083-0.729-0.142-1.254
					c-0.12-1.126-0.289-2.72-0.503-4.743c-0.416-4.106-1.008-9.949-1.728-17.057l0.227,0.188c-9.64,0.929-21.755,2.096-34.881,3.361
					c-0.054,0.061,0.441-0.536,0.232-0.28l0.001,0.006l0.001,0.012l0.002,0.025l0.005,0.049l0.009,0.098l0.019,0.196l0.037,0.392
					l0.074,0.782c0.049,0.521,0.098,1.04,0.147,1.557c0.098,1.034,0.195,2.061,0.291,3.08c0.192,2.038,0.381,4.044,0.566,6.013
					c0.368,3.936,0.721,7.72,1.056,11.304l-0.26-0.215c10.232-0.923,18.919-1.706,25.09-2.262c3.061-0.263,5.497-0.472,7.206-0.619
					c0.816-0.065,1.458-0.117,1.93-0.154c0.203-0.014,0.367-0.024,0.504-0.034C645.595,110.855,645.656,110.854,645.662,110.858
					c0.01,0.008-0.203,0.038-0.626,0.088c-0.459,0.051-1.083,0.119-1.877,0.207c-1.694,0.176-4.106,0.427-7.14,0.742
					c-6.203,0.618-14.937,1.487-25.223,2.511l-0.237,0.024l-0.023-0.239c-0.345-3.583-0.709-7.366-1.088-11.301
					c-0.188-1.968-0.38-3.974-0.575-6.012c-0.097-1.019-0.195-2.046-0.293-3.08c-0.049-0.517-0.098-1.036-0.148-1.557l-0.074-0.782
					l-0.037-0.392l-0.019-0.196l-0.009-0.098l-0.005-0.049l-0.002-0.025l-0.001-0.012l0-0.006c-0.21,0.251,0.285-0.35,0.237-0.287
					c13.13-1.226,25.248-2.357,34.891-3.258l0.209-0.02l0.018,0.207c0.634,7.17,1.156,13.064,1.523,17.206
					c0.168,2.008,0.3,3.589,0.393,4.707c0.039,0.51,0.069,0.913,0.092,1.219C645.664,110.728,645.67,110.865,645.662,110.858z"/>
			</g>
		</g>
		<g>
			<path style="fill:#E0E0E0;" d="M643.431,87.342c0.026,0.023-0.354,0.495-1.065,1.33c-0.775,0.891-1.804,2.076-3.054,3.514
				c-2.6,2.959-6.231,7.037-10.299,11.562l-0.147,0.164l-0.186-0.118c-0.294-0.188-0.611-0.389-0.929-0.592
				c-5.344-3.406-10.165-6.513-13.641-8.784c-1.679-1.11-3.063-2.025-4.102-2.712c-0.436-0.301-0.799-0.551-1.101-0.76
				c-0.249-0.179-0.375-0.28-0.365-0.295c0.01-0.015,0.154,0.056,0.421,0.206c0.316,0.186,0.697,0.409,1.154,0.677
				c1.061,0.652,2.476,1.52,4.191,2.573c3.526,2.192,8.379,5.25,13.723,8.656c0.318,0.203,0.634,0.405,0.929,0.592l-0.333,0.045
				c4.073-4.521,7.748-8.559,10.418-11.455c1.3-1.394,2.37-2.542,3.175-3.406C642.976,87.746,643.405,87.319,643.431,87.342z"/>
		</g>
	</g>
	<g>
		<g>
			<path style="fill:#E0E0E0;" d="M448.266,83.045c-0.011-0.037,0.362,0.023,0.872-0.329c0.242-0.181,0.502-0.483,0.611-0.913
				c0.098-0.419,0.033-0.973,0.053-1.566c0.015-2.439,0.036-5.891,0.062-10.138c0.01-1.071,0.02-2.192,0.031-3.359
				c0.006-0.584,0.012-1.18,0.018-1.787c-0.004-0.304,0.028-0.621-0.025-0.872c-0.054-0.265-0.184-0.514-0.374-0.709
				c-0.191-0.194-0.44-0.331-0.71-0.381c-0.25-0.043-0.609-0.015-0.925-0.021c-0.65,0.002-1.311,0.004-1.981,0.006
				c-1.341,0.004-2.72,0.007-4.135,0.011c-5.664,0.007-11.882,0.014-18.41,0.022c-0.694-0.014-1.31,0.596-1.356,1.284
				c-0.014,0.8-0.027,1.594-0.041,2.382c-0.024,1.59-0.048,3.157-0.071,4.697c-0.049,3.078-0.097,6.048-0.142,8.879
				c-0.006,0.354-0.012,0.705-0.018,1.054c-0.018,0.327,0.055,0.61,0.209,0.868c0.156,0.25,0.388,0.451,0.659,0.552
				c0.26,0.116,0.566,0.085,0.917,0.091c1.34,0.004,2.641,0.009,3.9,0.013c2.513,0.011,4.857,0.022,7.001,0.031
				c4.246,0.034,7.698,0.062,10.137,0.082c1.163,0.021,2.083,0.037,2.756,0.049c0.289,0.01,0.524,0.019,0.717,0.026
				C448.183,83.027,448.266,83.036,448.266,83.045c0,0.009-0.083,0.018-0.244,0.027c-0.192,0.007-0.428,0.015-0.717,0.026
				c-0.673,0.012-1.593,0.028-2.756,0.049c-2.439,0.02-5.891,0.049-10.137,0.084c-2.144,0.01-4.488,0.021-7.001,0.032
				c-1.259,0.004-2.56,0.009-3.9,0.013c-0.313-0.006-0.705,0.039-1.083-0.116c-0.368-0.136-0.683-0.404-0.892-0.738
				c-0.209-0.329-0.305-0.751-0.284-1.122c0.004-0.349,0.008-0.701,0.013-1.055c0.035-2.831,0.073-5.801,0.112-8.879
				c0.021-1.54,0.042-3.107,0.063-4.697c0.014-0.802,0.027-1.609,0.041-2.422c0.062-0.933,0.896-1.773,1.874-1.758
				c6.529,0.007,12.747,0.013,18.41,0.019c1.414,0.004,2.794,0.007,4.135,0.011c0.67,0.002,1.331,0.004,1.981,0.006
				c0.333,0.012,0.624-0.024,1.007,0.036c0.36,0.069,0.69,0.255,0.938,0.511c0.247,0.258,0.413,0.584,0.48,0.927
				c0.066,0.359,0.022,0.66,0.026,0.961c-0.011,0.607-0.022,1.202-0.033,1.787c-0.022,1.167-0.044,2.288-0.065,3.358
				c-0.095,4.245-0.173,7.697-0.227,10.135c-0.038,0.6,0.019,1.124-0.106,1.604c-0.137,0.466-0.433,0.779-0.701,0.958
				c-0.275,0.176-0.523,0.232-0.685,0.248C448.35,83.067,448.266,83.05,448.266,83.045z"/>
		</g>
		<polygon style="fill:#E0E0E0;" points="436.876,71.172 440.288,73.243 436.802,75.289 433.317,77.334 433.39,73.218 
			433.463,69.101 		"/>
	</g>
	<g>
		<g>
			<g>
				<polygon style="fill:#EBEBEB;" points="152.705,61.319 103.174,61.319 103.174,125.909 152.705,127.152 				"/>
			</g>
		</g>
		<g>
			<g>
				<polygon style="fill:#FAFAFA;" points="149.146,63.617 105.805,63.617 105.805,122.197 149.146,123.66 				"/>
			</g>
		</g>
		<g>
			<g>
				<polygon style="fill:#E0E0E0;" points="141.856,74.261 113.095,73.166 113.095,114.111 141.856,114.111 				"/>
			</g>
		</g>
		<g>
			<g>
				<polygon style="fill:#F5F5F5;" points="113.095,114.111 141.856,93.076 113.095,73.166 				"/>
			</g>
		</g>
	</g>
	<g>
		<g>
			<g>
				<path style="fill:#EBEBEB;" d="M521.823,406.19c-18.128-12.665-22.24-36.173-21.523-57.304c0.119-3.527-0.268-7.246,1.41-10.341
					c1.679-3.094,5.593-5.209,8.752-3.723c2.62,1.233,3.761,4.28,5.227,6.8c1.949,3.353,4.854,6.127,8.273,7.901
					c2.246,1.165,5.025,1.878,7.242,0.655c3.042-1.679,3.401-5.882,3.379-9.391c-0.041-6.539-0.081-13.078-0.123-19.615
					c-0.022-3.508-0.032-7.09,1.059-10.419c1.091-3.329,3.502-6.422,6.839-7.358c3.338-0.934,7.465,0.99,8.169,4.423
					c0.293,1.429,0.002,2.912,0.1,4.368c0.097,1.457,0.776,3.068,2.159,3.473c1.4,0.411,2.804-0.583,3.853-1.61
					c3.621-3.542,6.078-8.105,8.375-12.643c2.296-4.538,4.525-9.184,7.811-13.047c3.285-3.863,7.83-6.925,12.854-7.21
					c5.025-0.284,10.378,2.817,11.647,7.749c1.273,4.946-1.612,9.964-4.752,13.967c-4.658,5.94-10.169,11.193-16.304,15.542
					c-1.106,0.785-2.305,1.633-2.727,2.932c-0.762,2.339,1.454,4.662,3.763,5.431c2.615,0.871,5.452,0.599,8.188,0.921
					c2.735,0.322,5.699,1.529,6.734,4.114c1.437,3.586-1.562,7.344-4.513,9.806c-5.908,4.93-12.656,8.824-19.853,11.461
					c-2.581,0.944-5.297,1.773-7.378,3.586c-2.081,1.814,1.148,8.231,2.405,10.702c1.258,2.474,0,0,2.703-0.502
					c2.702-0.501,5.122-1.969,7.698-2.94c4.821-1.82,11.047-1.487,14.135,2.679c2.029,2.739,2.208,6.552,1.181,9.817
					c-1.026,3.265-3.108,6.077-5.318,8.67c-7.727,9.066-17.619,16.364-28.803,20.242C543.3,409.206,532.937,410.255,521.823,406.19"
					/>
			</g>
		</g>
		<g>
			<g>
				<g>
					<path style="fill:#E0E0E0;" d="M521.545,421.857c0.765-8.371,2.601-18.257,5.732-28.913
						c3.11-10.664,7.489-22.071,12.478-33.844c1.258-2.938,2.502-5.842,3.727-8.703c1.23-2.853,2.449-5.684,3.813-8.378
						c2.704-5.402,5.716-10.389,8.723-15.034c3.006-4.648,6.027-8.949,8.882-12.949c2.865-3.996,5.605-7.671,8.245-10.913
						c5.262-6.507,10.119-11.243,13.585-14.359c1.73-1.564,3.112-2.733,4.06-3.513c0.456-0.37,0.814-0.661,1.083-0.88
						c0.246-0.195,0.376-0.291,0.383-0.282c0.008,0.009-0.108,0.122-0.34,0.333c-0.259,0.231-0.604,0.538-1.042,0.929
						c-0.919,0.812-2.274,2.011-3.977,3.6c-3.409,3.169-8.198,7.939-13.4,14.463c-2.61,3.252-5.323,6.933-8.164,10.937
						c-2.834,4.012-5.835,8.317-8.82,12.962c-2.985,4.642-5.974,9.618-8.655,14.993c-1.352,2.681-2.558,5.488-3.789,8.349
						c-1.224,2.86-2.465,5.763-3.722,8.7c-4.985,11.764-9.369,23.137-12.502,33.759c-3.151,10.614-5.026,20.451-5.847,28.786"/>
				</g>
			</g>
		</g>
		<g>
			<g>
				<g>
					<path style="fill:#E0E0E0;" d="M547.479,341.993c-0.044,0.007-0.163-0.526-0.343-1.497c-0.185-0.969-0.404-2.38-0.651-4.128
						c-0.496-3.493-1.017-8.34-1.57-13.686c-0.554-5.349-1.141-10.175-1.689-13.65c-0.269-1.738-0.501-3.144-0.674-4.113
						c-0.167-0.971-0.239-1.513-0.196-1.523c0.044-0.01,0.198,0.513,0.441,1.47c0.249,0.955,0.55,2.352,0.877,4.086
						c0.666,3.468,1.328,8.306,1.882,13.66c0.533,5.277,1.014,10.051,1.382,13.698c0.176,1.647,0.327,3.035,0.447,4.148
						C547.487,341.439,547.524,341.986,547.479,341.993z"/>
				</g>
			</g>
		</g>
		<g>
			<g>
				<g>
					<path style="fill:#E0E0E0;" d="M592.583,333.563c0.001,0.045-0.641,0.119-1.799,0.215c-1.158,0.103-2.833,0.243-4.897,0.482
						c-4.131,0.446-9.816,1.262-16.049,2.436c-6.233,1.186-11.827,2.499-15.846,3.566c-2.014,0.519-3.633,0.983-4.753,1.297
						c-1.12,0.319-1.745,0.474-1.76,0.432c-0.014-0.044,0.587-0.281,1.686-0.675c1.1-0.388,2.703-0.921,4.707-1.5
						c3.999-1.184,9.597-2.573,15.848-3.763c6.251-1.177,11.968-1.924,16.123-2.253c2.077-0.181,3.762-0.252,4.928-0.276
						C591.937,333.507,592.581,333.517,592.583,333.563z"/>
				</g>
			</g>
		</g>
		<g>
			<g>
				<g>
					<path style="fill:#E0E0E0;" d="M527.832,392.114c-0.021,0.009-0.126-0.18-0.309-0.55c-0.209-0.441-0.463-0.98-0.771-1.632
						c-0.663-1.42-1.57-3.5-2.656-6.084c-2.176-5.167-4.957-12.399-7.918-20.421c-2.963-8.025-5.674-15.273-7.739-20.478
						c-1.012-2.53-1.845-4.611-2.464-6.158c-0.265-0.672-0.483-1.225-0.661-1.68c-0.144-0.386-0.211-0.594-0.19-0.604
						c0.021-0.008,0.126,0.181,0.309,0.551c0.208,0.441,0.463,0.979,0.771,1.631c0.663,1.42,1.57,3.5,2.656,6.084
						c2.176,5.167,4.957,12.399,7.919,20.424c2.962,8.023,5.672,15.27,7.737,20.475c1.013,2.529,1.845,4.611,2.464,6.157
						c0.265,0.672,0.482,1.226,0.661,1.68C527.786,391.897,527.852,392.105,527.832,392.114z"/>
				</g>
			</g>
		</g>
		<g>
			<g>
				<g>
					<path style="fill:#E0E0E0;" d="M587.768,372.797c0.006,0.022-0.2,0.105-0.595,0.245c-0.469,0.157-1.044,0.35-1.741,0.583
						c-1.608,0.521-3.778,1.225-6.418,2.08c-5.419,1.758-12.876,4.271-21.112,7.059c-8.238,2.79-15.726,5.237-21.183,6.882
						c-2.728,0.824-4.942,1.468-6.481,1.882c-0.712,0.187-1.298,0.34-1.775,0.466c-0.408,0.1-0.626,0.141-0.632,0.119
						c-0.006-0.022,0.2-0.105,0.595-0.246c0.467-0.156,1.043-0.348,1.741-0.582c1.608-0.522,3.777-1.224,6.417-2.08
						c5.419-1.757,12.877-4.271,21.115-7.06c8.236-2.789,15.722-5.236,21.179-6.881c2.728-0.824,4.942-1.468,6.483-1.882
						c0.711-0.187,1.297-0.342,1.775-0.466C587.544,372.816,587.761,372.775,587.768,372.797z"/>
				</g>
			</g>
		</g>
	</g>
</g>
<g id="Background_Simple" style="display:none;">
	<g style="display:inline;">
		<path style="fill:#EBEBEB;" d="M616.693,128.945c-2.014-35.837-35.193-56.79-59.096-62.833
			c-23.903-6.042-50.061,0.594-70.458,13.728c-20.397,13.133-35.673,32.166-48.112,52.196
			c-13.896,22.376-26.214,47.882-50.578,60.135c-21.278,10.701-47.375,8.696-70.607,2.499
			c-36.503-9.736-69.515-28.831-105.938-38.827c-36.423-9.996-80.462-8.762-106.662,16.934
			c-25.988,25.488-25.153,67.691-6.868,98.483c18.285,30.792,39.565,62.611,72.223,80.141
			c38.629,20.735,82.216,39.211,125.735,48.059c43.519,8.848,97.904-2.603,140.686-14.178
			c57.066-15.44,106.973-52.802,135.588-101.507C601.221,235.071,620.584,196.319,616.693,128.945"/>
	</g>
</g>
<g id="Floor">
	<g>
		<path style="fill:#263238;" d="M58.235,445.327c0-0.144,146.632-0.26,327.47-0.26c180.901,0,327.502,0.117,327.502,0.26
			c0,0.144-146.601,0.26-327.502,0.26C204.868,445.587,58.235,445.47,58.235,445.327z"/>
	</g>
</g>
<g id="Calendar">
	<g>
		<path style="fill:#E0E0E0;" d="M174.156,175.543c0,0-18.727,202.211,20.303,267.215l347.142,4.106
			c0,0-57.505-175.288-52.522-276.615L174.156,175.543z"/>
		<path style="fill:#EBEBEB;" d="M174.156,175.543c0,0-22.003,208.504,46.549,253.063h334.561c0,0-59.377-101.781-64.059-253.063
			H174.156z"/>
		<rect x="172.461" y="126.782" style="fill:#263238;" width="325.485" height="52.192"/>
		<g>
			<path style="fill:none;stroke:#E0E0E0;stroke-width:3;stroke-linecap:round;stroke-linejoin:round;stroke-miterlimit:10;" d="
				M201.548,127.187c0,0,3.279-11.785,15.24-11.785c10.188,0,15.24,8.18,15.24,15.676c0,7.645-4.63,15.432-15.24,16.011"/>
			<rect x="196.715" y="126.6" style="fill:#263238;" width="16.06" height="7.172"/>
		</g>
		<g>
			<path style="fill:none;stroke:#E0E0E0;stroke-width:3;stroke-linecap:round;stroke-linejoin:round;stroke-miterlimit:10;" d="
				M263.383,127.187c0,0,3.279-11.785,15.239-11.785c10.188,0,15.24,8.18,15.24,15.676c0,7.645-4.63,15.432-15.24,16.011"/>
			<rect x="258.549" y="126.6" style="fill:#263238;" width="16.06" height="7.172"/>
		</g>
		<g>
			<path style="fill:none;stroke:#E0E0E0;stroke-width:3;stroke-linecap:round;stroke-linejoin:round;stroke-miterlimit:10;" d="
				M325.218,127.187c0,0,3.279-11.785,15.24-11.785c10.188,0,15.24,8.18,15.24,15.676c0,7.645-4.63,15.432-15.24,16.011"/>
			<rect x="320.384" y="126.6" style="fill:#263238;" width="16.06" height="7.172"/>
		</g>
		<g>
			<path style="fill:none;stroke:#E0E0E0;stroke-width:3;stroke-linecap:round;stroke-linejoin:round;stroke-miterlimit:10;" d="
				M387.053,127.187c0,0,3.279-11.785,15.24-11.785c10.188,0,15.24,8.18,15.24,15.676c0,7.645-4.63,15.432-15.24,16.011"/>
			<rect x="382.219" y="126.6" style="fill:#263238;" width="16.06" height="7.172"/>
		</g>
		<g>
			<path style="fill:none;stroke:#E0E0E0;stroke-width:3;stroke-linecap:round;stroke-linejoin:round;stroke-miterlimit:10;" d="
				M448.887,127.187c0,0,3.279-11.785,15.24-11.785c10.188,0,15.24,8.18,15.24,15.676c0,7.645-4.63,15.432-15.24,16.011"/>
			<rect x="444.053" y="126.6" style="fill:#263238;" width="16.06" height="7.172"/>
		</g>
		<g>
			<path style="fill:#F5F5F5;" d="M172.488,180.908c0,0-3.603,232.373,71.725,232.373l309.385,0.104
				c0,0-44.217-45.112-57.32-232.478H172.488z"/>
			<g>
				<g>
					<g>
						<path style="fill:#263238;" d="M509.465,384.596c-0.071-0.199-0.404-1.135-1.133-3.181c-0.726-2.102-1.867-5.159-3.214-9.251
							c-2.773-8.15-6.635-20.206-11.071-35.775c-8.903-31.115-19.647-76.464-28.006-132.363l0.208,0.18
							c-73.135,0.014-164.042,0.031-262.33,0.05c-0.839,0-1.678,0-2.5,0l0.258-0.296c4.723,33.643,9.575,66.431,17.424,97.144
							c3.917,15.345,8.591,30.148,14.228,44.136c5.626,13.989,12.225,27.147,19.682,39.233l-0.2-0.111
							C404.833,384.501,507.389,384.595,509.465,384.596c-2.074,0.002-104.632,0.096-256.653,0.235l-0.131,0l-0.069-0.112
							c-7.479-12.106-14.097-25.286-19.738-39.297c-5.652-14.009-10.338-28.832-14.263-44.194
							c-7.867-30.747-12.724-63.552-17.448-97.198l-0.042-0.297h0.3c0.822,0,1.661,0,2.5,0c98.289,0.019,189.195,0.036,262.33,0.049
							h0.182l0.027,0.18c8.309,55.886,18.989,101.233,27.82,132.36c4.4,15.574,8.224,27.639,10.958,35.8
							C507.979,380.215,509.327,384.19,509.465,384.596z"/>
					</g>
					<g>
						<path style="fill:#263238;" d="M481.667,294.163c0,0.144-59.079,0.26-131.941,0.26c-72.887,0-131.953-0.117-131.953-0.26
							s59.067-0.26,131.953-0.26C422.587,293.902,481.667,294.019,481.667,294.163z"/>
					</g>
					<g>
						<path style="fill:#263238;" d="M495.889,342.428c0,0.144-59.094,0.26-131.973,0.26c-72.905,0-131.986-0.117-131.986-0.26
							c0-0.144,59.081-0.26,131.986-0.26C436.794,342.168,495.889,342.284,495.889,342.428z"/>
					</g>
					<g>
						<path style="fill:#263238;" d="M472.737,247.646c0,0.144-59.077,0.26-131.935,0.26c-72.883,0-131.948-0.117-131.948-0.26
							s59.064-0.26,131.948-0.26C413.66,247.386,472.737,247.502,472.737,247.646z"/>
					</g>
					<g>
						<path style="fill:#263238;" d="M295.804,384.596c0,0-0.064-0.15-0.164-0.451c-0.104-0.323-0.248-0.768-0.433-1.34
							c-0.377-1.204-0.92-2.941-1.616-5.167c-1.402-4.488-3.361-11.003-5.727-19.07c-4.714-16.138-10.955-38.519-16.98-63.458
							c-3.009-12.474-5.694-24.4-7.991-35.279c-2.254-10.887-4.204-20.707-5.671-28.986c-0.768-4.133-1.402-7.882-1.957-11.175
							c-0.568-3.291-1.031-6.129-1.382-8.454c-0.353-2.305-0.629-4.104-0.82-5.351c-0.086-0.595-0.152-1.058-0.2-1.394
							c-0.042-0.314-0.051-0.477-0.051-0.477s0.044,0.158,0.103,0.469c0.061,0.334,0.144,0.794,0.251,1.385
							c0.214,1.243,0.522,3.036,0.916,5.334c0.382,2.319,0.874,5.152,1.469,8.437c0.582,3.287,1.241,7.031,2.032,11.158
							c1.513,8.267,3.5,18.077,5.779,28.953c2.321,10.868,5.02,22.786,8.027,35.255c6.022,24.929,12.205,47.317,16.827,63.478
							c2.321,8.078,4.225,14.608,5.568,19.114c0.656,2.238,1.167,3.984,1.522,5.195c0.164,0.578,0.291,1.028,0.383,1.355
							C295.774,384.436,295.804,384.596,295.804,384.596z"/>
					</g>
					<g>
						<path style="fill:#263238;" d="M347.015,384.596c0,0-0.063-0.151-0.161-0.452c-0.102-0.324-0.243-0.77-0.423-1.343
							c-0.368-1.207-0.899-2.948-1.579-5.178c-1.37-4.498-3.29-11.024-5.633-19.097c-4.642-16.158-10.914-38.527-17.021-63.445
							c-6.152-24.915-10.91-47.666-13.872-64.217c-0.755-4.135-1.411-7.881-1.938-11.179c-0.546-3.294-1.016-6.132-1.346-8.46
							c-0.337-2.308-0.6-4.108-0.782-5.357c-0.081-0.595-0.145-1.059-0.19-1.395c-0.04-0.315-0.047-0.478-0.047-0.478
							s0.043,0.158,0.1,0.47c0.058,0.334,0.138,0.795,0.241,1.387c0.205,1.245,0.5,3.04,0.878,5.34
							c0.361,2.322,0.859,5.154,1.433,8.443c0.554,3.292,1.235,7.032,2.013,11.161c3.053,16.528,7.866,39.253,14.015,64.16
							c6.105,24.909,12.319,47.288,16.87,63.468c2.306,8.065,4.174,14.599,5.473,19.141c0.64,2.242,1.139,3.992,1.485,5.206
							c0.159,0.58,0.284,1.03,0.374,1.358C346.986,384.436,347.015,384.596,347.015,384.596z"/>
					</g>
					<g>
						<path style="fill:#263238;" d="M400.497,384.596c0,0-0.065-0.15-0.166-0.451c-0.106-0.323-0.251-0.767-0.438-1.339
							c-0.382-1.203-0.932-2.939-1.637-5.163c-1.422-4.484-3.412-10.992-5.841-19.045c-4.808-16.117-11.293-38.44-17.495-63.348
							c-6.251-24.904-10.913-47.695-13.638-64.296c-0.691-4.149-1.303-7.904-1.759-11.214c-0.48-3.307-0.906-6.152-1.173-8.49
							c-0.281-2.316-0.5-4.123-0.652-5.377c-0.067-0.598-0.119-1.062-0.157-1.4c-0.032-0.316-0.036-0.479-0.036-0.479
							s0.039,0.159,0.089,0.473c0.05,0.336,0.119,0.798,0.208,1.393c0.175,1.25,0.426,3.053,0.749,5.363
							c0.298,2.332,0.753,5.173,1.26,8.473c0.483,3.305,1.12,7.054,1.834,11.196c2.816,16.576,7.531,39.339,13.78,64.232
							c6.2,24.897,12.627,47.229,17.343,63.37c2.394,8.043,4.333,14.559,5.682,19.09c0.665,2.236,1.184,3.981,1.544,5.191
							c0.166,0.578,0.295,1.028,0.389,1.354C400.467,384.436,400.497,384.596,400.497,384.596z"/>
					</g>
					<g>
						<path style="fill:#263238;" d="M453.98,384.596c0,0-0.066-0.15-0.171-0.449c-0.109-0.322-0.259-0.765-0.451-1.336
							c-0.393-1.201-0.96-2.932-1.687-5.15c-1.466-4.473-3.517-10.967-6.026-19c-4.964-16.081-11.661-38.357-18.008-63.247
							c-3.194-12.443-5.958-24.369-8.202-35.271c-1.172-5.441-2.103-10.649-3.035-15.509c-0.417-2.439-0.819-4.795-1.206-7.06
							c-0.39-2.264-0.755-4.438-1.045-6.523c-2.53-16.65-3.162-27.055-3.162-27.055s0.034,0.16,0.074,0.475
							c0.04,0.337,0.095,0.802,0.166,1.4c0.137,1.255,0.336,3.065,0.59,5.385c0.218,2.342,0.635,5.191,1.059,8.505
							c0.397,3.318,1.002,7.075,1.637,11.233c0.301,2.081,0.677,4.252,1.077,6.513c0.396,2.262,0.808,4.614,1.234,7.05
							c0.95,4.854,1.896,10.054,3.08,15.489c2.268,10.889,5.044,22.804,8.237,35.241c6.344,24.876,12.982,47.162,17.855,63.268
							c2.472,8.025,4.475,14.526,5.867,19.047c0.686,2.231,1.222,3.972,1.594,5.18c0.172,0.577,0.305,1.026,0.402,1.351
							C453.948,384.436,453.98,384.596,453.98,384.596z"/>
					</g>
				</g>
				<g>
					<g>
						<path style="fill:#455A64;" d="M260.818,221.883c0,0,2.253,21.911,10.95,35.588h51.21c0,0-12.453-22.158-13.955-37.556
							l-1.127-8.638h-47.898L260.818,221.883z"/>
						<g>
							<path style="fill:#FAFAFA;" d="M303.343,225.723c0,0.144-7.294,0.26-16.29,0.26c-8.999,0-16.291-0.117-16.291-0.26
								s7.292-0.26,16.291-0.26C296.049,225.462,303.343,225.579,303.343,225.723z"/>
						</g>
						<g>
							<path style="fill:#FAFAFA;" d="M304.972,231.261c0,0.144-7.294,0.26-16.29,0.26c-8.999,0-16.291-0.117-16.291-0.26
								s7.292-0.26,16.291-0.26C297.678,231.001,304.972,231.117,304.972,231.261z"/>
						</g>
						<g>
							<path style="fill:#FAFAFA;" d="M306.601,236.8c0,0.144-7.294,0.26-16.29,0.26c-8.999,0-16.291-0.117-16.291-0.26
								c0-0.144,7.292-0.26,16.291-0.26C299.307,236.54,306.601,236.656,306.601,236.8z"/>
						</g>
						<g>
							<path style="fill:#FAFAFA;" d="M308.23,242.339c0,0.144-7.294,0.261-16.29,0.261c-8.999,0-16.291-0.117-16.291-0.261
								c0-0.144,7.292-0.26,16.291-0.26C300.936,242.078,308.23,242.195,308.23,242.339z"/>
						</g>
					</g>
				</g>
				<g>
					<g>
						<path style="fill:#263238;" d="M436.628,275.887c0,0,2.253,21.911,10.95,35.588h51.21c0,0-12.453-22.158-13.955-37.556
							l-1.127-8.638h-47.898L436.628,275.887z"/>
						<g>
							<path style="fill:#E0E0E0;" d="M479.154,278.632c0,0.144-7.294,0.26-16.29,0.26c-8.999,0-16.291-0.117-16.291-0.26
								c0-0.144,7.292-0.26,16.291-0.26C471.86,278.371,479.154,278.488,479.154,278.632z"/>
						</g>
						<g>
							<path style="fill:#E0E0E0;" d="M480.783,284.171c0,0.144-7.294,0.26-16.29,0.26c-8.999,0-16.291-0.117-16.291-0.26
								c0-0.144,7.293-0.26,16.291-0.26C473.489,283.91,480.783,284.027,480.783,284.171z"/>
						</g>
						<g>
							<path style="fill:#E0E0E0;" d="M482.412,289.709c0,0.144-7.294,0.26-16.29,0.26c-8.999,0-16.291-0.117-16.291-0.26
								s7.293-0.26,16.291-0.26C475.118,289.449,482.412,289.565,482.412,289.709z"/>
						</g>
						<g>
							<path style="fill:#E0E0E0;" d="M484.041,295.248c0,0.144-7.294,0.26-16.29,0.26c-8.999,0-16.291-0.117-16.291-0.26
								c0-0.144,7.292-0.26,16.291-0.26C476.747,294.988,484.041,295.104,484.041,295.248z"/>
						</g>
					</g>
				</g>
				<g>
					<path style="fill:#E8505B;" d="M403.581,208.091c0.531,0.431-6.102,9.254-16.119,18.4c-9.991,9.181-19.36,15.014-19.743,14.447
						c-0.438-0.614,8.136-7.315,17.984-16.367C395.58,215.557,403.008,207.601,403.581,208.091z"/>
				</g>
				<g>
					<path style="fill:#E8505B;" d="M413.292,241.766c-0.426,0.597-11.615-6.688-25.39-15.674
						c-13.77-9.004-24.936-16.318-24.561-16.948c0.359-0.606,12.163,5.731,25.985,14.768
						C403.153,232.931,413.703,241.194,413.292,241.766z"/>
				</g>
				<g>
					<g>
						<path style="fill:#E8505B;" d="M316.66,237.698c-0.436-0.572,6.931-6.913,16.451-14.16c9.523-7.25,17.594-12.661,18.03-12.089
							c0.435,0.572-6.929,6.911-16.453,14.161C325.168,232.857,317.095,238.27,316.66,237.698z"/>
					</g>
				</g>
				<g>
					<g>
						<path style="fill:#E8505B;" d="M357.106,240.794c-0.457,0.592-10.261-6.315-22.702-14.25
							c-12.425-7.968-22.806-13.971-22.46-14.633c0.311-0.617,11.322,4.398,23.863,12.439
							C348.363,232.359,357.536,240.253,357.106,240.794z"/>
					</g>
				</g>
				<g>
					<path style="fill:#E8505B;" d="M359.927,299.15c-0.005-0.084,0.51-0.196,1.514-0.267c1.001-0.039,2.501,0.004,4.38,0.434
						c1.865,0.441,4.136,1.238,6.438,2.765c2.316,1.483,4.669,3.712,6.469,6.738c1.788,3.019,2.917,6.83,2.949,10.963
						c0.018,2.064-0.233,4.205-0.801,6.34c-0.581,2.129-1.497,4.247-2.735,6.224c-2.487,3.951-6.272,7.331-10.872,9.466
						c-4.578,2.184-10.058,2.903-15.339,1.962c-5.291-0.922-10.177-3.402-13.803-6.989c-3.67-3.571-5.867-8.241-6.665-12.805
						c-0.832-4.586-0.286-9.129,1.195-12.986c0.73-1.937,1.729-3.697,2.907-5.218c1.165-1.528,2.477-2.842,3.873-3.893
						c2.749-2.176,5.731-3.38,8.379-4.074c2.668-0.679,5.063-0.76,6.973-0.583c0.48,0.021,0.928,0.092,1.348,0.168
						c0.419,0.077,0.813,0.124,1.17,0.216c0.711,0.202,1.316,0.34,1.783,0.53c0.933,0.379,1.398,0.617,1.367,0.701
						c-0.074,0.253-2.041-0.582-5.716-0.603c-1.824-0.017-4.072,0.207-6.536,0.973c-2.444,0.779-5.166,2.018-7.616,4.107
						c-1.248,1.008-2.4,2.245-3.411,3.653c-1.022,1.4-1.883,3.011-2.5,4.779c-1.255,3.517-1.677,7.652-0.858,11.794
						c0.793,4.134,2.796,8.256,6.088,11.416c3.259,3.183,7.685,5.418,12.472,6.249c4.789,0.845,9.667,0.226,13.821-1.715
						c4.171-1.897,7.632-4.923,9.918-8.441c1.139-1.763,1.988-3.637,2.551-5.549c0.548-1.915,0.818-3.852,0.846-5.728
						c0.061-3.758-0.865-7.252-2.393-10.052c-1.535-2.799-3.607-4.953-5.692-6.445c-2.07-1.535-4.149-2.421-5.879-2.986
						C362.048,299.21,359.923,299.394,359.927,299.15z"/>
				</g>
				<g>
					<path style="fill:#E8505B;" d="M217.673,288.358c-0.546-0.446,5.754-9.03,14.606-18.697
						c8.701-9.527,16.677-16.876,17.322-16.217c0.514,0.522-6.61,8.348-15.4,17.974C225.4,281.028,218.238,288.824,217.673,288.358z
						"/>
				</g>
				<g>
					<path style="fill:#E8505B;" d="M258.23,284.277c-0.378,0.612-10.61-5.027-22.85-12.592
						c-12.245-7.568-21.861-14.197-21.483-14.809c0.378-0.611,10.497,5.026,22.742,12.594
						C248.879,277.036,258.607,283.666,258.23,284.277z"/>
				</g>
				<path style="fill:#E8505B;" d="M355.507,307.084l3.911,5.611c0.324,0.465,0.857,0.741,1.424,0.738l6.839-0.041
					c1.428-0.009,2.246,1.624,1.384,2.763l-4.128,5.453c-0.342,0.452-0.44,1.044-0.262,1.582l2.152,6.492
					c0.449,1.356-0.851,2.638-2.2,2.17l-6.462-2.24c-0.536-0.186-1.129-0.096-1.586,0.24l-5.509,4.053
					c-1.15,0.846-2.772,0.006-2.744-1.422l0.134-6.838c0.011-0.567-0.257-1.103-0.718-1.434l-5.557-3.987
					c-1.16-0.833-0.862-2.634,0.504-3.049l6.545-1.986c0.543-0.165,0.97-0.586,1.142-1.126l2.075-6.517
					C352.885,306.186,354.69,305.913,355.507,307.084z"/>
				<g>
					<path style="fill:#E8505B;" d="M461.989,208.329c0.48,0.536-8.234,9.118-19.46,19.167
						c-11.23,10.052-20.719,17.764-21.199,17.228c-0.479-0.536,8.232-9.116,19.462-19.169
						C452.018,215.507,461.51,207.793,461.989,208.329z"/>
				</g>
				<g>
					<path style="fill:#E8505B;" d="M468.521,239.219c-0.322,0.643-12.531-4.826-27.265-12.214
						c-14.739-7.39-26.422-13.9-26.1-14.543c0.322-0.642,12.528,4.825,27.267,12.215
						C457.158,232.065,468.843,238.577,468.521,239.219z"/>
				</g>
				<polygon style="fill:#455A64;" points="449.831,219.842 509.465,219.842 523.774,230.908 511.155,241.262 453.98,241.197 				
					"/>
			</g>
		</g>
		<path style="opacity:0.2;fill:#FFFFFF;" d="M355.507,307.084l3.911,5.611c0.324,0.465,0.857,0.741,1.424,0.738l6.839-0.041
			c1.428-0.009,2.246,1.624,1.384,2.763l-4.128,5.453c-0.342,0.452-0.44,1.044-0.262,1.582l2.152,6.492
			c0.449,1.356-0.851,2.638-2.2,2.17l-6.462-2.24c-0.536-0.186-1.129-0.096-1.586,0.24l-5.509,4.053
			c-1.15,0.846-2.772,0.006-2.744-1.422l0.134-6.838c0.011-0.567-0.257-1.103-0.718-1.434l-5.557-3.987
			c-1.16-0.833-0.862-2.634,0.504-3.049l6.545-1.986c0.543-0.165,0.97-0.586,1.142-1.126l2.075-6.517
			C352.885,306.186,354.69,305.913,355.507,307.084z"/>
	</g>
</g>
<g id="Character_2">
	<g>
		<g>
			<g>
				<g>
					<g>
						<g>
							<path style="fill:#E8505B;" d="M606.923,440.299l0.048-8.415l15.764-0.012l0.061,12.312l-0.977,0.064
								c-4.35,0.245-22.134,0.938-25.042,0.058C593.532,443.325,606.923,440.299,606.923,440.299z"/>
						</g>
					</g>
					<g style="opacity:0.6;">
						<g>
							<path style="fill:#FFFFFF;" d="M617.096,444.263c0.224-1.317,0.955-2.542,2.009-3.363c1.054-0.821,2.352-1.254,3.684-1.149
								l0.007,4.406L617.096,444.263z"/>
						</g>
					</g>
				</g>
				<g style="opacity:0.6;">
					<g>
						<path style="fill:#FFFFFF;" d="M600.404,442c0,0-4.693,1.358-4.107,2.13c0.586,0.773,18.584,0.749,26.522,0.043l-0.026-0.352
							l-20.993,0.207C601.8,444.028,601.321,442.038,600.404,442z"/>
					</g>
				</g>
				<g>
					<g>
						<g>
							<path style="fill:#263238;" d="M622.907,443.698c0,0.007-0.093,0.017-0.271,0.03c-0.234,0.014-0.49,0.03-0.778,0.048
								c-0.779,0.035-1.736,0.077-2.865,0.127c-2.42,0.09-5.765,0.171-9.459,0.179c-3.696,0.007-7.042-0.059-9.462-0.139
								c-1.13-0.045-2.087-0.084-2.865-0.115c-0.289-0.017-0.545-0.031-0.778-0.045c-0.178-0.012-0.271-0.022-0.271-0.029
								c0-0.007,0.094-0.01,0.272-0.01c0.234,0.003,0.49,0.006,0.78,0.009c0.779,0.015,1.736,0.033,2.866,0.054
								c2.42,0.046,5.764,0.091,9.458,0.083c3.693-0.008,7.036-0.067,9.456-0.123c1.13-0.026,2.087-0.048,2.866-0.067
								c0.289-0.004,0.546-0.008,0.78-0.012C622.813,443.689,622.907,443.692,622.907,443.698z"/>
						</g>
					</g>
				</g>
				<g>
					<g>
						<g>
							<path style="fill:#263238;" d="M601.801,444.332c-0.058,0.007-0.104-0.677-0.537-1.367c-0.421-0.698-1.011-1.047-0.978-1.096
								c0.011-0.048,0.687,0.249,1.141,0.995C601.889,443.606,601.848,444.343,601.801,444.332z"/>
						</g>
					</g>
				</g>
				<g>
					<g>
						<g>
							<path style="fill:#263238;" d="M606.75,441.598c-0.045,0.028-0.267-0.242-0.498-0.604c-0.23-0.362-0.381-0.678-0.337-0.707
								c0.044-0.028,0.267,0.242,0.498,0.604C606.644,441.253,606.794,441.569,606.75,441.598z"/>
						</g>
					</g>
				</g>
				<g>
					<g>
						<g>
							<path style="fill:#263238;" d="M608.025,440.921c-0.035,0.039-0.284-0.126-0.556-0.37c-0.272-0.244-0.464-0.473-0.429-0.512
								c0.035-0.039,0.284,0.126,0.556,0.37C607.868,440.652,608.06,440.882,608.025,440.921z"/>
						</g>
					</g>
				</g>
				<g>
					<g>
						<g>
							<path style="fill:#263238;" d="M608.83,439.432c0.001,0.053-0.367,0.1-0.822,0.106c-0.455,0.006-0.824-0.033-0.825-0.085
								c-0.001-0.053,0.367-0.1,0.822-0.106C608.46,439.341,608.83,439.379,608.83,439.432z"/>
						</g>
					</g>
				</g>
				<g>
					<g>
						<g>
							<path style="fill:#263238;" d="M609.106,438.383c0.018,0.047-0.383,0.229-0.917,0.268c-0.534,0.043-0.958-0.076-0.948-0.125
								c0.009-0.054,0.426-0.024,0.933-0.065C608.681,438.423,609.089,438.33,609.106,438.383z"/>
						</g>
					</g>
				</g>
				<g>
					<g>
						<g>
							<path style="fill:#263238;" d="M606.213,440.223c0.001,0.021-0.388,0.069-1.013-0.005c-0.312-0.037-0.681-0.111-1.079-0.236
								c-0.198-0.07-0.404-0.122-0.618-0.254c-0.1-0.067-0.212-0.161-0.251-0.314c-0.042-0.152,0.039-0.322,0.153-0.405
								c0.968-0.503,1.938,0.04,2.298,0.54c0.198,0.255,0.289,0.504,0.331,0.676c0.041,0.173,0.038,0.272,0.026,0.274
								c-0.036,0.013-0.069-0.399-0.462-0.863c-0.194-0.228-0.488-0.449-0.866-0.561c-0.358-0.105-0.867-0.133-1.207,0.084
								c-0.161,0.119-0.098,0.309,0.081,0.415c0.167,0.107,0.383,0.172,0.57,0.242c0.384,0.131,0.741,0.217,1.044,0.27
								C605.827,440.191,606.213,440.192,606.213,440.223z"/>
						</g>
					</g>
				</g>
				<g>
					<g>
						<g>
							<path style="fill:#263238;" d="M605.951,440.274c-0.014,0.011-0.164-0.247-0.118-0.703c0.024-0.224,0.106-0.489,0.276-0.74
								c0.179-0.225,0.408-0.535,0.843-0.518c0.235,0.03,0.35,0.297,0.313,0.467c-0.018,0.177-0.098,0.33-0.172,0.453
								c-0.15,0.253-0.32,0.458-0.477,0.614c-0.317,0.311-0.568,0.43-0.579,0.411c-0.018-0.025,0.202-0.182,0.48-0.503
								c0.139-0.16,0.289-0.364,0.423-0.608c0.139-0.214,0.233-0.599-0.021-0.645c-0.254-0.024-0.512,0.229-0.667,0.431
								c-0.159,0.219-0.247,0.456-0.286,0.659C605.89,440.003,605.985,440.266,605.951,440.274z"/>
						</g>
					</g>
				</g>
				<g>
					<g>
						<g>
							<path style="fill:#263238;" d="M623.011,439.684c-0.003,0.036-0.452-0.042-1.164,0.043c-0.705,0.079-1.687,0.37-2.539,1.051
								c-0.852,0.682-1.352,1.575-1.585,2.246c-0.24,0.676-0.262,1.13-0.298,1.126c-0.012-0.001-0.017-0.114-0.001-0.318
								c0.016-0.204,0.064-0.498,0.171-0.85c0.206-0.7,0.705-1.641,1.594-2.353c0.889-0.71,1.918-0.989,2.646-1.036
								c0.367-0.026,0.665-0.008,0.867,0.021C622.903,439.642,623.012,439.673,623.011,439.684z"/>
						</g>
					</g>
				</g>
				<g>
					<g>
						<g>
							<path style="fill:#263238;" d="M621.368,432.631c0.053-0.001,0.116,1.449,0.141,3.238c0.025,1.789,0.003,3.24-0.05,3.241
								c-0.053,0.001-0.116-1.449-0.141-3.238C621.293,434.083,621.315,432.632,621.368,432.631z"/>
						</g>
					</g>
				</g>
				<g>
					<g>
						<g>
							<path style="fill:#263238;" d="M615.415,442.21c0.007,0.049-1.02,0.219-2.301,0.231c-1.281,0.016-2.311-0.132-2.306-0.181
								c0.005-0.055,1.034,0.006,2.304-0.01C614.38,442.239,615.409,442.155,615.415,442.21z"/>
						</g>
					</g>
				</g>
				<g>
					<g>
						<g>
							<path style="fill:#263238;" d="M618.504,442.201c0.038,0.039-0.084,0.218-0.189,0.455c-0.108,0.235-0.162,0.446-0.216,0.442
								c-0.051,0-0.082-0.249,0.042-0.521C618.263,442.305,618.47,442.163,618.504,442.201z"/>
						</g>
					</g>
				</g>
				<g>
					<g>
						<g>
							<path style="fill:#263238;" d="M619.667,440.751c0.038,0.037-0.064,0.201-0.227,0.367c-0.163,0.165-0.325,0.27-0.363,0.233
								c-0.038-0.037,0.064-0.201,0.227-0.367C619.466,440.818,619.629,440.714,619.667,440.751z"/>
						</g>
					</g>
				</g>
				<g>
					<g>
						<g>
							<path style="fill:#263238;" d="M621.332,440.086c-0.011,0.054-0.221,0.052-0.452,0.134c-0.233,0.076-0.398,0.205-0.44,0.169
								c-0.042-0.029,0.09-0.254,0.378-0.35C621.106,439.941,621.348,440.038,621.332,440.086z"/>
						</g>
					</g>
				</g>
				<g>
					<g>
						<g>
							<path style="fill:#263238;" d="M622.517,439.772c0.019,0.049-0.071,0.13-0.202,0.181c-0.131,0.051-0.252,0.052-0.271,0.003
								c-0.019-0.049,0.071-0.13,0.202-0.181C622.377,439.725,622.498,439.723,622.517,439.772z"/>
						</g>
					</g>
				</g>
			</g>
		</g>
		<g>
			<g>
				<polygon style="fill:#E8505B;" points="553.463,162.411 692.239,168.003 692.239,200.005 551.411,194.834 				"/>
				<path style="fill:#E8505B;" d="M528.677,174.307c0,0-7.895-0.942-9.767,2.465c0,0,1.596,4.319,9.425,3.956L528.677,174.307z"/>
				<path style="fill:#263238;" d="M527.982,172.816l-0.795,8.855l9.517,0.929c0,0,3.906,0.32,8.413,5.172
					c4.507,4.853,6.294,7.061,6.294,7.061l2.052-32.422l-6.257,5.861c-1.238,1.16-2.663,2.099-4.213,2.787
					c-1.905,0.846-4.452,1.863-5.932,1.991C533.706,173.34,527.982,172.816,527.982,172.816z"/>
				<path style="fill:#263238;" d="M692.239,168.003c0,0,8.369,4.785,6.706,17.169c-1.434,10.673-6.706,14.833-6.706,14.833V168.003
					z"/>
			</g>
			<polygon style="opacity:0.4;fill:#FFFFFF;" points="552.798,174.229 692.239,179.328 692.239,187.987 552.28,182.422 			"/>
			<g style="opacity:0.3;">
				<path d="M632.949,167.692c2.172,0.155,3.622,2.256,5.53,3.305c1.871,1.028,4.178,1.025,6.038,2.073
					c1.618,0.911,2.763,2.615,2.995,4.457c0.232,1.842-0.454,3.777-1.795,5.061c-1.626,1.558-4.258,2.402-4.733,4.603
					c-0.211,0.981-0.355,2.475-1.347,2.324c-0.55-0.083-0.812-0.705-1.215-1.09c-0.854-0.814-2.331-0.451-3.183,0.365
					c-0.852,0.816-1.304,1.954-1.955,2.939c-0.651,0.985-1.682,1.892-2.857,1.782c-0.008,1.314,0.036,2.911,0.029,4.225
					l-6.846-0.333l0.769-27.855L632.949,167.692z"/>
			</g>
		</g>
		<g>
			<g>
				<g>
					<g>
						<g>
							<path style="fill:#E8505B;" d="M655.235,440.802l-0.048-8.415l-15.764-0.012l-0.061,12.312l0.977,0.064
								c4.35,0.245,22.134,0.938,25.042,0.058C668.627,443.828,655.235,440.802,655.235,440.802z"/>
						</g>
					</g>
					<g style="opacity:0.6;">
						<g>
							<path style="fill:#FFFFFF;" d="M645.063,444.767c-0.224-1.317-0.955-2.542-2.009-3.363c-1.054-0.821-2.352-1.254-3.684-1.149
								l-0.007,4.406L645.063,444.767z"/>
						</g>
					</g>
				</g>
				<g style="opacity:0.6;">
					<g>
						<path style="fill:#FFFFFF;" d="M661.755,442.503c0,0,4.693,1.358,4.107,2.13c-0.586,0.773-18.584,0.749-26.522,0.043
							l0.025-0.352l20.994,0.207C660.359,444.532,660.837,442.541,661.755,442.503z"/>
					</g>
				</g>
				<g>
					<g>
						<g>
							<path style="fill:#263238;" d="M639.251,444.202c0,0.007,0.093,0.017,0.271,0.03c0.234,0.014,0.49,0.03,0.778,0.048
								c0.779,0.035,1.736,0.077,2.865,0.127c2.42,0.09,5.764,0.171,9.459,0.179c3.696,0.007,7.042-0.059,9.462-0.139
								c1.13-0.045,2.087-0.084,2.865-0.115c0.289-0.017,0.545-0.031,0.778-0.045c0.178-0.012,0.271-0.022,0.271-0.029
								c0-0.007-0.094-0.01-0.272-0.01c-0.234,0.003-0.49,0.006-0.78,0.009c-0.779,0.015-1.736,0.033-2.866,0.054
								c-2.42,0.046-5.764,0.091-9.458,0.083c-3.693-0.008-7.036-0.067-9.456-0.123c-1.13-0.026-2.087-0.048-2.866-0.067
								c-0.289-0.005-0.546-0.009-0.78-0.012C639.346,444.192,639.252,444.195,639.251,444.202z"/>
						</g>
					</g>
				</g>
				<g>
					<g>
						<g>
							<path style="fill:#263238;" d="M660.358,444.836c0.058,0.007,0.104-0.677,0.537-1.367c0.421-0.698,1.011-1.047,0.978-1.096
								c-0.011-0.047-0.687,0.249-1.141,0.996C660.27,444.11,660.311,444.847,660.358,444.836z"/>
						</g>
					</g>
				</g>
				<g>
					<g>
						<g>
							<path style="fill:#263238;" d="M655.409,442.101c0.044,0.028,0.267-0.242,0.498-0.604c0.23-0.362,0.381-0.678,0.337-0.707
								c-0.044-0.028-0.267,0.242-0.498,0.604C655.515,441.756,655.365,442.073,655.409,442.101z"/>
						</g>
					</g>
				</g>
				<g>
					<g>
						<g>
							<path style="fill:#263238;" d="M654.134,441.424c0.035,0.039,0.284-0.126,0.556-0.37c0.272-0.244,0.464-0.473,0.429-0.512
								c-0.035-0.039-0.284,0.126-0.556,0.37C654.29,441.156,654.099,441.385,654.134,441.424z"/>
						</g>
					</g>
				</g>
				<g>
					<g>
						<g>
							<path style="fill:#263238;" d="M653.329,439.936c-0.001,0.053,0.368,0.1,0.822,0.106c0.455,0.006,0.824-0.033,0.825-0.085
								c0.001-0.053-0.367-0.1-0.822-0.106C653.699,439.845,653.329,439.883,653.329,439.936z"/>
						</g>
					</g>
				</g>
				<g>
					<g>
						<g>
							<path style="fill:#263238;" d="M653.053,438.886c-0.018,0.047,0.383,0.229,0.917,0.268c0.534,0.042,0.958-0.076,0.948-0.125
								c-0.009-0.054-0.426-0.024-0.933-0.065C653.478,438.927,653.07,438.833,653.053,438.886z"/>
						</g>
					</g>
				</g>
				<g>
					<g>
						<g>
							<path style="fill:#263238;" d="M655.946,440.727c-0.001,0.021,0.388,0.069,1.013-0.005c0.312-0.037,0.681-0.111,1.079-0.236
								c0.198-0.07,0.404-0.122,0.618-0.253c0.1-0.067,0.212-0.161,0.251-0.314c0.042-0.152-0.039-0.322-0.153-0.405
								c-0.968-0.503-1.938,0.04-2.298,0.54c-0.198,0.255-0.289,0.504-0.331,0.675c-0.041,0.173-0.038,0.272-0.026,0.274
								c0.036,0.013,0.069-0.399,0.462-0.863c0.194-0.228,0.488-0.449,0.866-0.561c0.358-0.105,0.867-0.133,1.207,0.084
								c0.161,0.119,0.098,0.309-0.081,0.415c-0.167,0.107-0.383,0.172-0.57,0.242c-0.384,0.131-0.741,0.217-1.044,0.27
								C656.332,440.695,655.945,440.695,655.946,440.727z"/>
						</g>
					</g>
				</g>
				<g>
					<g>
						<g>
							<path style="fill:#263238;" d="M656.208,440.777c0.014,0.011,0.164-0.247,0.118-0.703c-0.024-0.224-0.106-0.489-0.276-0.74
								c-0.179-0.225-0.408-0.535-0.843-0.518c-0.235,0.03-0.35,0.297-0.313,0.467c0.018,0.177,0.098,0.33,0.172,0.453
								c0.15,0.253,0.32,0.458,0.477,0.614c0.317,0.311,0.568,0.43,0.579,0.411c0.018-0.025-0.202-0.182-0.481-0.503
								c-0.139-0.16-0.289-0.364-0.423-0.608c-0.139-0.214-0.234-0.599,0.021-0.645c0.254-0.024,0.512,0.229,0.667,0.431
								c0.159,0.219,0.247,0.456,0.286,0.659C656.269,440.507,656.174,440.77,656.208,440.777z"/>
						</g>
					</g>
				</g>
				<g>
					<g>
						<g>
							<path style="fill:#263238;" d="M639.148,440.188c0.003,0.036,0.452-0.042,1.164,0.043c0.706,0.079,1.687,0.37,2.54,1.051
								c0.852,0.682,1.352,1.575,1.585,2.246c0.24,0.676,0.262,1.13,0.298,1.126c0.012-0.001,0.017-0.114,0.001-0.318
								c-0.016-0.204-0.064-0.498-0.171-0.85c-0.206-0.7-0.705-1.641-1.594-2.353c-0.889-0.71-1.918-0.989-2.646-1.036
								c-0.367-0.026-0.665-0.008-0.867,0.021C639.256,440.146,639.146,440.176,639.148,440.188z"/>
						</g>
					</g>
				</g>
				<g>
					<g>
						<g>
							<path style="fill:#263238;" d="M640.791,433.135c-0.053-0.001-0.116,1.449-0.141,3.238c-0.025,1.789-0.003,3.24,0.05,3.241
								c0.053,0.001,0.116-1.449,0.141-3.238C640.866,434.586,640.844,433.135,640.791,433.135z"/>
						</g>
					</g>
				</g>
				<g>
					<g>
						<g>
							<path style="fill:#263238;" d="M646.744,442.714c-0.007,0.049,1.02,0.219,2.301,0.231c1.281,0.016,2.311-0.132,2.306-0.182
								c-0.005-0.055-1.034,0.006-2.304-0.009C647.778,442.742,646.75,442.658,646.744,442.714z"/>
						</g>
					</g>
				</g>
				<g>
					<g>
						<g>
							<path style="fill:#263238;" d="M643.655,442.705c-0.038,0.038,0.084,0.218,0.189,0.455c0.108,0.235,0.162,0.446,0.216,0.442
								c0.051,0,0.082-0.249-0.042-0.521C643.895,442.808,643.689,442.667,643.655,442.705z"/>
						</g>
					</g>
				</g>
				<g>
					<g>
						<g>
							<path style="fill:#263238;" d="M642.492,441.254c-0.038,0.037,0.064,0.201,0.227,0.367c0.163,0.166,0.325,0.27,0.363,0.233
								c0.038-0.037-0.064-0.201-0.227-0.367C642.692,441.322,642.53,441.217,642.492,441.254z"/>
						</g>
					</g>
				</g>
				<g>
					<g>
						<g>
							<path style="fill:#263238;" d="M640.827,440.59c0.011,0.053,0.22,0.052,0.452,0.134c0.233,0.076,0.398,0.205,0.44,0.17
								c0.042-0.029-0.09-0.254-0.378-0.35C641.053,440.444,640.811,440.541,640.827,440.59z"/>
						</g>
					</g>
				</g>
				<g>
					<g>
						<g>
							<path style="fill:#263238;" d="M639.641,440.276c-0.019,0.049,0.071,0.13,0.202,0.181c0.131,0.051,0.252,0.052,0.271,0.003
								c0.019-0.049-0.071-0.13-0.202-0.181C639.782,440.228,639.66,440.227,639.641,440.276z"/>
						</g>
					</g>
				</g>
			</g>
		</g>
		<path style="fill:#FFBE9D;" d="M598.371,204.922c0,0-24.454,10.338-25.234,9.948c-0.666-0.333-1.347-19.288-1.347-19.288
			l-12.203-0.448c0,0-2.281,28.861,5.05,33.54c10.019,6.395,34.28-6.916,34.28-6.916L598.371,204.922z"/>
		<g>
			<path style="fill:#FFBE9D;" d="M610.68,198.148c-0.027-3.054-0.055-5.715-0.055-5.715s-6.17-0.653-6.544-6.771
				c-0.375-6.118,0-20.227,0-20.227l11.237-5.494l12.361,9.365l-1.304,29.128c-0.188,4.196-3.644,7.501-7.844,7.501l0,0
				C614.222,205.934,610.718,202.457,610.68,198.148z"/>
			<g>
				<path style="fill:#263238;" d="M605.401,175.718c0,0.432,0.351,0.783,0.783,0.783s0.783-0.351,0.783-0.783
					s-0.351-0.783-0.783-0.783S605.401,175.286,605.401,175.718z"/>
				<g>
					<path style="fill:#263238;" d="M604.643,174.865c0.101,0.101,0.68-0.391,1.522-0.436c0.843-0.058,1.476,0.361,1.564,0.248
						c0.043-0.05-0.062-0.237-0.339-0.427c-0.272-0.189-0.731-0.362-1.257-0.33c-0.525,0.032-0.96,0.259-1.207,0.48
						C604.676,174.622,604.594,174.82,604.643,174.865z"/>
				</g>
			</g>
			<g>
				<path style="fill:#263238;" d="M614.476,175.718c0,0.432,0.351,0.783,0.783,0.783c0.432,0,0.783-0.351,0.783-0.783
					s-0.351-0.783-0.783-0.783C614.826,174.935,614.476,175.286,614.476,175.718z"/>
				<g>
					<path style="fill:#263238;" d="M613.989,174.865c0.101,0.101,0.68-0.391,1.522-0.436c0.843-0.058,1.476,0.361,1.564,0.248
						c0.043-0.05-0.062-0.237-0.339-0.427c-0.272-0.189-0.731-0.362-1.257-0.33c-0.525,0.032-0.96,0.259-1.207,0.48
						C614.022,174.622,613.94,174.82,613.989,174.865z"/>
				</g>
			</g>
			<g>
				<path style="fill:#263238;" d="M610.948,181.986c-0.003,0.072-0.534,0.117-1.391,0.131c-0.106,0.001-0.231,0.007-0.383-0.03
					c-0.15-0.031-0.336-0.158-0.408-0.342c-0.135-0.368,0.006-0.676,0.074-0.935c0.179-0.577,0.358-1.154,0.546-1.758
					c0.802-2.486,1.563-4.465,1.7-4.421c0.137,0.044-0.402,2.094-1.204,4.58c-0.201,0.6-0.393,1.172-0.585,1.745
					c-0.101,0.269-0.172,0.506-0.129,0.627c0.015,0.106,0.18,0.151,0.404,0.164C610.424,181.829,610.951,181.914,610.948,181.986z"
					/>
			</g>
			<g>
				<path style="fill:#EB996E;" d="M614.995,182.402c0.022,0.698,1.095,1.198,2.396,1.228c1.301,0.027,2.385-0.426,2.423-1.123
					c0.038-0.692-1.032-1.37-2.394-1.398C616.058,181.078,614.973,181.709,614.995,182.402z"/>
			</g>
			<path style="fill:#FFFFFF;" d="M613.733,182.783c0.853-0.566-2.356,1.403-4.076,1.403c0,0,1.061,1.525,2.795,0.793
				C614.251,184.22,613.733,182.783,613.733,182.783z"/>
			<path style="fill:#EB996E;" d="M610.335,192.433c0,0,4.12,0.046,8.106-2.738c0,0-1.837,4.492-7.973,4.239L610.335,192.433z"/>
			<path style="fill:#263238;" d="M636.725,174.397l0.035,1.089c-0.133-1.129-0.447-3.704-0.63-4.404
				c-3.338-12.76-14.553-15.138-16.771-15.138c-2.379,0-6.542-1.308-12.608,4.996s-2.743,13.084-2.743,13.084l1.018-0.94l8.95-2.31
				c-0.708-2.414,0.334-5.41,0.924-6.807l0.058-0.053c1.784,9.159,11.875,10.111,11.875,10.111l-0.792,16.994
				C637.954,188.472,636.725,174.397,636.725,174.397z"/>
			<path style="fill:#263238;" d="M636.418,173.778c-0.147-1.461,1.051-2.821,2.464-3.219c1.413-0.398,2.944-0.008,4.247,0.668
				c1.312,0.68,2.546,1.767,2.824,3.218c0.339,1.768-0.808,3.449-1.941,4.848c-0.699,0.864-1.434,1.727-2.376,2.316
				c-0.942,0.589-2.138,0.872-3.182,0.491c-0.884-0.323-1.55-1.076-2.013-1.897c-1.599-2.834-0.904-6.757,1.57-8.87"/>
			<g>
				<path style="fill:#263238;" d="M614.388,159.179c0.016,0.164-1.132,0.312-2.836,0.94c-1.696,0.614-3.951,1.815-5.82,3.821
					c-1.868,2.008-2.905,4.343-3.396,6.079c-0.504,1.745-0.57,2.9-0.734,2.896c-0.121,0.006-0.323-1.177,0.018-3.066
					c0.327-1.87,1.328-4.446,3.35-6.619c2.022-2.171,4.52-3.354,6.362-3.814C613.191,158.941,614.385,159.059,614.388,159.179z"/>
			</g>
			<path style="fill:#FFBE9D;" d="M628.426,181.73c-0.036-1.019-0.039-2.069,0.328-3.021c0.367-0.952,1.186-1.795,2.201-1.9
				c1.168-0.122,2.298,0.849,2.484,2.008c0.186,1.159-0.49,2.366-1.513,2.942c-1.023,0.576-2.32,0.559-3.398,0.095"/>
			<g>
				<path style="fill:#EB996E;" d="M630.229,181.25c-0.015-0.078,0.238-0.164,0.53-0.423c0.29-0.248,0.618-0.714,0.631-1.268
					c0.008-0.555-0.302-1.033-0.582-1.292c-0.281-0.27-0.531-0.367-0.513-0.444c0.007-0.062,0.318-0.098,0.734,0.149
					c0.403,0.232,0.888,0.812,0.881,1.597c-0.024,0.784-0.531,1.344-0.943,1.561C630.544,181.36,630.234,181.311,630.229,181.25z"/>
			</g>
			<g>
				<path style="fill:#263238;" d="M611.471,175.335c-0.018,0-0.03-0.105-0.037-0.309c-0.011-0.203,0.009-0.506,0.089-0.887
					c0.149-0.75,0.61-1.874,1.73-2.762c1.081-0.889,2.919-1.42,4.728-0.771c1.793,0.591,3.361,2.495,3.34,4.728
					c0.022,2.234-1.547,4.139-3.34,4.73c-1.809,0.649-3.647,0.118-4.728-0.771c-1.12-0.888-1.581-2.012-1.73-2.762
					c-0.08-0.38-0.099-0.684-0.089-0.886C611.441,175.44,611.454,175.335,611.471,175.335c0.051-0.002,0.044,0.427,0.248,1.146
					c0.202,0.706,0.692,1.733,1.757,2.519c1.03,0.788,2.715,1.223,4.341,0.613c1.612-0.56,3.001-2.277,2.983-4.279
					c0.018-2.001-1.371-3.717-2.983-4.277c-1.626-0.61-3.311-0.175-4.341,0.613c-1.065,0.786-1.555,1.813-1.757,2.519
					C611.516,174.908,611.522,175.337,611.471,175.335z"/>
			</g>
			<g>
				<path style="fill:#263238;" d="M600.419,175.335c-0.018,0-0.03-0.105-0.037-0.309c-0.011-0.203,0.009-0.506,0.089-0.887
					c0.149-0.75,0.61-1.874,1.73-2.762c1.081-0.889,2.919-1.42,4.728-0.771c1.793,0.591,3.361,2.495,3.34,4.728
					c0.022,2.234-1.547,4.139-3.34,4.73c-1.809,0.649-3.647,0.118-4.728-0.771c-1.12-0.888-1.581-2.012-1.73-2.762
					c-0.08-0.38-0.099-0.684-0.089-0.886C600.388,175.44,600.401,175.335,600.419,175.335c0.051-0.002,0.044,0.427,0.248,1.146
					c0.202,0.706,0.692,1.733,1.757,2.519c1.03,0.788,2.715,1.223,4.341,0.613c1.612-0.56,3.001-2.277,2.983-4.279
					c0.018-2.001-1.371-3.717-2.983-4.277c-1.626-0.61-3.311-0.175-4.341,0.613c-1.065,0.786-1.555,1.813-1.757,2.519
					C600.463,174.908,600.469,175.337,600.419,175.335z"/>
			</g>
			<g>
				<path style="fill:#263238;" d="M610.008,175.486c0-0.144,0.393-0.26,0.878-0.26c0.485,0,0.878,0.117,0.878,0.26
					c0,0.144-0.393,0.26-0.878,0.26C610.402,175.746,610.008,175.63,610.008,175.486z"/>
			</g>
			<g>
				<path style="fill:#263238;" d="M620.895,176.337c0.028-0.141,1.952,0.12,4.298,0.583c2.346,0.463,4.225,0.953,4.197,1.094
					c-0.028,0.141-1.952-0.12-4.298-0.583C622.747,176.968,620.867,176.478,620.895,176.337z"/>
			</g>
		</g>
		<g>
			<g>
				<polyline style="fill:#263238;" points="593.182,275.704 600.84,437.433 625.386,437.949 619.023,298.186 635.643,437.356 
					660.714,437.982 641.088,273.931 				"/>
			</g>
			<g>
				<path style="fill:#455A64;" d="M612.404,437.676c-0.144,0.007-1.909-36.139-3.943-80.722
					c-2.034-44.599-3.566-80.747-3.423-80.754c0.144-0.007,1.909,36.131,3.943,80.73
					C611.015,401.514,612.548,437.67,612.404,437.676z"/>
			</g>
			<g>
				<path style="fill:#455A64;" d="M649.047,436.374c-0.143,0.018-4.555-35.084-9.854-78.391c-5.3-43.322-9.48-78.444-9.338-78.462
					c0.143-0.018,4.554,35.076,9.855,78.399C645.009,401.227,649.19,436.356,649.047,436.374z"/>
			</g>
		</g>
		<g>
			<path style="fill:#455A64;" d="M647.346,238.048l12.589-15.732l-15.46-15.585l-0.002,0.003
				c-2.989-3.102-6.488-5.396-10.675-6.911c-1.873-0.678-3.866-1.091-6.118-1.237v-1.248l-6.785,0.135c0,0-0.342,1.062-0.717,2.274
				c-0.363,0.972-0.534,2.943-0.972,2.942c-0.48-0.001-1.115-1.97-1.78-2.958c-0.618-1.239-1.16-2.333-1.16-2.333l-6.258-0.302
				v1.577c-2.499,0.341-6.874,1.114-11.8,3.525l0-0.002l-23.086,9.367l7.397,20.406l15.665-5.272
				c-0.105,0.282-0.216,0.562-0.298,0.853c-0.64,2.292-0.43,4.81,0.579,6.965c0.487,1.039,1.161,1.986,1.969,2.8l-0.3,16.459
				l-6.951,21.928l47.906,0.497l-5.445-23.673l2.48-23.457L647.346,238.048z"/>
			<g>
				<path style="fill:#263238;" d="M616.114,197.633c0.068,0.025-0.064,0.575-0.332,1.444c-0.165,0.507-0.329,1.009-0.495,1.517
					c-0.103,0.291-0.187,0.566-0.322,0.906c-0.078,0.165-0.177,0.369-0.423,0.504c-0.256,0.143-0.572,0.048-0.733-0.056
					c-2.34-1.559-4.111-2.9-4.039-3.022c0.074-0.126,2.024,1.052,4.296,2.569c0.363,0.343,0.542-0.548,0.772-1.065
					c0.201-0.495,0.4-0.985,0.6-1.479C615.792,198.113,616.046,197.608,616.114,197.633z"/>
			</g>
			<g>
				<path style="fill:#263238;" d="M628.24,198.912c0.11,0.072-1.443,2.261-4.1,4.172c-0.119,0.084-0.237,0.168-0.347,0.246
					l-0.214,0.152l-0.149-0.219c-1.733-2.547-2.372-4.913-2.252-4.941c0.141-0.055,0.977,2.183,2.681,4.648l-0.363-0.066
					c0.108-0.077,0.223-0.159,0.339-0.242C626.425,200.802,628.122,198.809,628.24,198.912z"/>
			</g>
			<g>
				<path style="fill:#263238;" d="M617.221,276.004c-0.018,0-0.038-0.256-0.06-0.744c-0.018-0.539-0.041-1.25-0.07-2.138
					c-0.021-1.857-0.019-4.544,0.039-7.863c0.118-6.638,0.431-15.802,0.823-25.92c0.38-10.096,0.724-19.232,0.975-25.914
					c0.085-3.273,0.155-5.942,0.205-7.854c0.012-0.887,0.021-1.597,0.028-2.136c0.012-0.489,0.027-0.745,0.045-0.746
					c0.018,0,0.038,0.256,0.06,0.744c0.018,0.539,0.041,1.25,0.07,2.138c0.021,1.857,0.019,4.544-0.039,7.863
					c-0.118,6.638-0.431,15.803-0.823,25.924c-0.38,10.092-0.724,19.228-0.975,25.909c-0.085,3.273-0.155,5.942-0.205,7.854
					c-0.012,0.887-0.021,1.597-0.028,2.136C617.254,275.747,617.239,276.004,617.221,276.004z"/>
			</g>
			<g>
				<path style="fill:#263238;" d="M623.205,214.76c-0.018-0.062,0.417-0.128,0.786,0.349c0.166,0.227,0.307,0.583,0.201,0.995
					c-0.101,0.42-0.519,0.751-0.972,0.812c-0.451,0.074-0.947-0.119-1.168-0.491c-0.222-0.362-0.192-0.744-0.1-1.01
					c0.213-0.564,0.647-0.629,0.649-0.564c0.039,0.068-0.231,0.238-0.293,0.659c-0.03,0.201-0.001,0.459,0.142,0.646
					c0.133,0.187,0.404,0.286,0.693,0.245c0.289-0.046,0.518-0.22,0.59-0.438c0.082-0.22,0.033-0.475-0.054-0.659
					C623.496,214.92,623.188,214.837,623.205,214.76z"/>
			</g>
			<g>
				<path style="fill:#263238;" d="M623.373,231.321c-0.01-0.063,0.358-0.118,0.692,0.28c0.151,0.191,0.289,0.496,0.213,0.862
					c-0.068,0.376-0.432,0.692-0.83,0.752c-0.395,0.077-0.855-0.097-1.034-0.455c-0.177-0.352-0.091-0.69,0.032-0.905
					c0.283-0.467,0.699-0.396,0.673-0.329c0.011,0.075-0.242,0.152-0.339,0.484c-0.125,0.335,0.074,0.786,0.579,0.691
					c0.503-0.075,0.569-0.585,0.399-0.898C623.606,231.486,623.356,231.397,623.373,231.321z"/>
			</g>
			<g>
				<path style="fill:#263238;" d="M586.333,230.433c-0.07,0.024-0.516-1.093-1.219-2.902c-0.768-1.952-1.722-4.375-2.777-7.054
					c-1.101-2.662-2.097-5.068-2.899-7.006c-0.751-1.79-1.205-2.904-1.138-2.935c0.063-0.029,0.635,1.029,1.474,2.784
					c0.839,1.755,1.934,4.209,3.046,6.962c1.11,2.752,2.025,5.279,2.64,7.124C586.076,229.251,586.399,230.411,586.333,230.433z"/>
			</g>
			<g>
				<path style="fill:#263238;" d="M657.989,220.194c0.103,0.1-3.015,3.493-6.964,7.578c-3.95,4.086-7.235,7.317-7.339,7.217
					c-0.103-0.1,3.014-3.492,6.964-7.579C654.6,223.325,657.886,220.094,657.989,220.194z"/>
			</g>
		</g>
		<g>
			<g>
				<path style="fill:#E8505B;" d="M655.232,238.43l6.887,33.34l-31.746,6.558c-7.908,1.634-15.643-3.453-17.277-11.361
					l-0.971-4.702c-1.634-7.908,3.453-15.643,11.361-17.277L655.232,238.43z"/>
				<path style="fill:#E8505B;" d="M681.018,233.103l-51.082,10.552l0,0c-0.431-2.086,0.911-4.126,2.997-4.557l43.528-8.992
					C678.547,229.675,680.588,231.017,681.018,233.103L681.018,233.103z"/>
				<g style="opacity:0.4;">
					<path d="M655.937,238.27c0.016,0.07-1.029,0.353-2.732,0.755s-4.064,0.921-6.678,1.463c-2.615,0.542-4.989,1.005-6.713,1.314
						c-1.724,0.309-2.797,0.465-2.813,0.395c-0.015-0.07,1.03-0.354,2.733-0.755c1.703-0.401,4.064-0.92,6.678-1.463
						c2.614-0.542,4.987-1.004,6.711-1.313C654.846,238.356,655.921,238.2,655.937,238.27z"/>
				</g>
			</g>
			<g style="opacity:0.3;">
				<path d="M657.857,251.411c-0.116-0.788-0.232-1.577-0.348-2.365c-5.984,4.806-11.435,10.257-16.432,16.083
					c-1.425,1.662-2.837,3.393-3.631,5.433c-0.793,2.04-0.884,4.469,0.272,6.328l13.277-2.959L657.857,251.411z"/>
			</g>
		</g>
		<g>
			<path style="fill:#FFBE9D;" d="M671.127,258.631c5.04-5.795,5.011-14.426-0.069-20.187l-12.763-14.472l-10.127,12.546
				c0.447,0.298,10.919,12.733,10.919,12.733l-15.994,19.933c-2.464,3.07-3.805,7.398-2.524,11.12l2.136,4.471
				c1.536,3.216,5.357,4.618,8.608,3.159l3.83-1.718c0.946-0.424,1.134-1.686,0.353-2.367l-0.932-0.813
				c-0.684-0.597-1.585-0.884-2.489-0.793l-4.877,0.492c0,0-0.222-0.898-0.222-0.898l0,0L671.127,258.631z"/>
			<g>
				<path style="fill:#EB996E;" d="M655.918,284.508c0.008,0.074-0.59,0.222-1.535,0.578c-0.951,0.31-2.258,0.942-3.918,0.924
					c-0.881-0.056-1.58-0.543-2.067-1.033c-0.499-0.497-0.837-1.033-1.06-1.506c-0.456-0.953-0.421-1.636-0.363-1.632
					c0.085-0.013,0.179,0.612,0.688,1.46c0.249,0.422,0.597,0.9,1.067,1.332c0.461,0.432,1.076,0.819,1.76,0.859
					c1.463,0.025,2.801-0.526,3.784-0.755C655.26,284.464,655.912,284.438,655.918,284.508z"/>
			</g>
			<g>
				<path style="fill:#EB996E;" d="M654.563,283.037c0.009,0.138-1.571,0.735-3.674,1.297c-1.073,0.26-2.172,0.128-2.816-0.263
					c-0.663-0.374-0.857-0.836-0.802-0.863c0.063-0.051,0.345,0.289,0.961,0.53c0.61,0.26,1.535,0.325,2.547,0.086
					C652.807,283.282,654.55,282.885,654.563,283.037z"/>
			</g>
		</g>
	</g>
</g>
<g id="Character_1">
	<g>
		<g>
			<path style="fill:#FFBE9D;" d="M115.652,263.662c-0.461-0.125-9.553,13.232-9.855,24.716c-0.029,1.094,0.025,2.244,0.127,3.376
				c0.364,4.021,1.376,7.955,2.862,11.709c7.686,19.409,15.612,42.43,15.742,47.669c0.403,16.157,7.387,88.696,7.387,88.696
				l15.329,0.399l2.444-89.089l-5.443-88.211L115.652,263.662z"/>
		</g>
		<g>
			<path style="fill:#EB996E;" d="M144.925,275.121c0,0,20.729,67.282,19.423,89.012c-1.306,21.73-17.094,75.792-17.094,75.792
				L144.925,275.121z"/>
		</g>
		<g>
			<path style="fill:#263238;" d="M109.441,263.759c0,0-11.546,14.863-3.491,38.267c7.989,23.215,2.269,51.561,2.269,51.561
				s10.209-7.657,17.451-4.273c8.239,3.85,13.727,8.449,23.956,3.985c10.678-4.661,19.158-7.284,28.899,1.837l-15.078-52.596
				l-8.713-33.49L109.441,263.759z"/>
		</g>
		<path style="fill:#EB996E;" d="M169.933,246.371c-2.533-0.231-7.086-23.44-7.086-23.44l-18.692,6.25
			c0,0-0.564,3.531,10.694,26.033c0,0,6.633,11.794,14.913,11.257L169.933,246.371z"/>
		<g>
			<path style="fill:#E8505B;" d="M143.019,200.734c0,0,14.159-1.397,20.747,15.806l0.005-0.004l0.059,0.166
				c0.12,0.318,0.234,0.649,0.348,0.98l5.513,15.506l-15.178,7.574l-0.037,1.718l1.658,31.115l-48.424-9.155l3.908-5.626
				c3.759-5.192,2.917-12.478,1.374-18.7l-0.526-2.12l-6.561,3.425c0,0-4.54-8.955-3.535-21.626
				c0.015-0.187,0.031-0.372,0.047-0.555c1.068-11.76,11.377-20.486,23.159-19.687L143.019,200.734z"/>
			<g style="opacity:0.3;">
				<path d="M119.804,218.671c2.664,10.088,7.593,20.176,12.557,29.353c0.477,0.881,1.531,1.886,2.292,1.234
					c0.576-0.493,0.268-1.424-0.081-2.097C129.649,237.665,124.727,228.168,119.804,218.671"/>
			</g>
			<g>
				<path style="fill:#263238;" d="M153.276,224.164c0.068-0.023,0.436,0.879,0.976,2.355c0.529,1.485,1.275,3.505,1.982,5.821
					c0.329,1.166,0.51,2.356,0.367,3.432c-0.131,1.074-0.503,1.973-0.854,2.684c-0.728,1.416-1.32,2.189-1.369,2.162
					c-0.076-0.041,0.409-0.895,1.035-2.315c0.3-0.712,0.616-1.584,0.711-2.582c0.106-0.995-0.072-2.105-0.392-3.24
					c-0.686-2.189-1.306-4.171-1.83-5.845C153.452,225.129,153.207,224.186,153.276,224.164z"/>
			</g>
		</g>
		<g>
			<path style="fill:#263238;" d="M149.294,172.64c-0.039,4.016,2.18,7.979,5.624,10.045c0.927,0.556,1.937,0.986,2.786,1.656
				c0.849,0.67,1.541,1.662,1.496,2.742c-0.07,1.689-1.78,2.762-3.285,3.532c1.652,1.549,1.67,4.504,0.037,6.073
				c-1.633,1.569-4.585,1.433-6.067-0.281c-0.083,3.168-2.616,5.974-5.663,6.843c-3.047,0.869-6.423-0.005-9.002-1.846
				c-2.579-1.84-4.43-4.555-5.731-7.444"/>
		</g>
		<g>
			<g>
				<path style="fill:#263238;" d="M157.498,179.089c0.021-0.014,0.197,0.224,0.191,0.731c-0.007,0.489-0.269,1.257-1.038,1.782
					c-0.771,0.526-1.986,0.565-3.05,0.039c-1.086-0.525-1.923-1.567-2.573-2.689c-1.338-2.262-1.929-4.603-2.133-6.288
					c-0.208-1.695-0.099-2.749-0.038-2.747c0.088-0.002,0.115,1.044,0.415,2.689c0.295,1.638,0.928,3.887,2.22,6.072
					c0.63,1.09,1.396,2.041,2.332,2.52c0.926,0.486,1.965,0.481,2.626,0.082c0.672-0.401,0.967-1.049,1.031-1.478
					C157.549,179.357,157.453,179.102,157.498,179.089z"/>
			</g>
		</g>
		<g>
			<g>
				<path style="fill:#FFBE9D;" d="M141.504,201.541c0.216-3.84,0.487-7.655,0.487-7.655s6.134-0.649,6.507-6.732
					c0.372-6.083,0-20.111,0-20.111l-11.173-5.462l-12.29,9.311l1.255,30.533c0.16,3.903,3.247,7.052,7.146,7.29l0,0
					C137.647,208.971,141.267,205.755,141.504,201.541z"/>
			</g>
			<g>
				<g>
					<path style="fill:#263238;" d="M147.277,177.268c0,0.43-0.349,0.779-0.779,0.779c-0.43,0-0.779-0.349-0.779-0.779
						c0-0.43,0.349-0.779,0.779-0.779C146.928,176.489,147.277,176.838,147.277,177.268z"/>
				</g>
				<g>
					<g>
						<path style="fill:#263238;" d="M148.031,176.419c-0.101,0.101-0.676-0.388-1.514-0.433c-0.838-0.057-1.468,0.359-1.555,0.246
							c-0.043-0.05,0.061-0.235,0.337-0.424c0.27-0.188,0.727-0.359,1.249-0.328s0.954,0.258,1.2,0.477
							C147.999,176.178,148.079,176.374,148.031,176.419z"/>
					</g>
				</g>
			</g>
			<g>
				<g>
					<path style="fill:#263238;" d="M138.255,177.268c0,0.43-0.349,0.779-0.779,0.779c-0.43,0-0.779-0.349-0.779-0.779
						c0-0.43,0.349-0.779,0.779-0.779C137.906,176.489,138.255,176.838,138.255,177.268z"/>
				</g>
				<g>
					<g>
						<path style="fill:#263238;" d="M138.739,176.419c-0.1,0.101-0.676-0.388-1.514-0.433c-0.837-0.057-1.468,0.359-1.555,0.246
							c-0.043-0.05,0.061-0.235,0.337-0.424c0.27-0.188,0.727-0.359,1.249-0.328c0.522,0.032,0.954,0.258,1.2,0.477
							C138.706,176.178,138.787,176.374,138.739,176.419z"/>
					</g>
				</g>
			</g>
			<g>
				<g>
					<path style="fill:#263238;" d="M141.762,183.445c-0.002-0.044,0.52-0.105,1.365-0.166c0.211-0.011,0.429-0.037,0.479-0.195
						c0.063-0.162-0.019-0.41-0.113-0.673c-0.19-0.57-0.378-1.135-0.575-1.727c-0.399-1.228-0.743-2.346-0.977-3.16
						c-0.234-0.814-0.357-1.324-0.315-1.338c0.042-0.014,0.243,0.472,0.532,1.267c0.289,0.796,0.668,1.902,1.067,3.131
						c0.189,0.594,0.369,1.162,0.55,1.735c0.073,0.257,0.202,0.552,0.076,0.871c-0.167,0.343-0.536,0.314-0.716,0.317
						C142.289,183.51,141.764,183.49,141.762,183.445z"/>
				</g>
			</g>
			<g>
				<path style="fill:#FFFFFF;" d="M138.994,184.292c-0.848-0.563,2.342,1.395,4.053,1.395c0,0-1.055,1.517-2.779,0.789
					C138.478,185.721,138.994,184.292,138.994,184.292z"/>
			</g>
			<g>
				<path style="fill:#EB996E;" d="M141.991,193.886c0,0-4.097,0.046-8.06-2.722c0,0,1.827,4.466,7.927,4.215L141.991,193.886z"/>
			</g>
			<g>
				<path style="fill:#263238;" d="M145.936,162.574c-6.031-6.268-10.171-4.967-12.536-4.967c-1.678,0-8.532,1.375-13.177,7.618
					l-0.001-0.005c-1.684,1.752-4.083,7.451-4.359,9.463c-0.275,2.013,0.07,4.055,0.056,6.087c-0.014,2.032-0.478,4.219-1.999,5.566
					c-0.963,0.853-2.315,1.345-2.894,2.494c-0.676,1.342,0.085,3.068,1.337,3.899c1.253,0.831,2.841,0.956,4.343,0.893
					c-0.351,2.999,1.975,6.062,4.958,6.528c1.534,0.24,3.11-0.231,4.36-1.144c1.012,0.987,2.088,1.923,3.239,2.788
					c0.251-8.853,0.056-17.718-0.557-26.554c4.059-0.72,11.339-2.909,12.606-9.412c1.621,3.704,4.082,5.721,7.353,8.526
					C148.663,174.354,151.968,168.842,145.936,162.574z"/>
			</g>
			<g>
				<g>
					<path style="fill:#263238;" d="M129.151,172.889c0.003-0.079,0.961-0.077,2.488,0.008c1.507,0.054,3.675,0.22,5.771-0.675
						c1.038-0.439,1.874-1.146,2.408-1.953c0.54-0.807,0.817-1.666,0.965-2.396c0.283-1.475,0.144-2.434,0.24-2.439
						c0.049-0.014,0.332,0.937,0.135,2.503c-0.107,0.774-0.359,1.705-0.925,2.604c-0.558,0.901-1.488,1.705-2.608,2.176
						c-2.268,0.96-4.514,0.707-6.015,0.561C130.082,173.094,129.149,172.959,129.151,172.889z"/>
				</g>
			</g>
			<g>
				<g>
					<path style="fill:#263238;" d="M113.309,187.785c0.005-0.055,0.386,0.071,0.995-0.144c0.581-0.209,1.416-0.849,1.649-1.972
						c0.26-1.124-0.109-2.508-0.741-3.938c-0.302-0.727-0.651-1.499-0.863-2.368c-0.206-0.868-0.274-1.802-0.17-2.738
						c0.195-1.881,0.941-3.551,1.814-4.9c0.882-1.351,1.882-2.402,2.747-3.238c0.87-0.834,1.618-1.454,2.139-1.877
						c0.523-0.42,0.825-0.637,0.849-0.61c0.061,0.066-1.052,1.055-2.719,2.756c-0.82,0.86-1.769,1.917-2.598,3.236
						c-0.818,1.312-1.514,2.919-1.696,4.688c-0.098,0.881-0.036,1.751,0.147,2.56c0.19,0.809,0.517,1.566,0.809,2.303
						c0.613,1.453,0.994,2.973,0.652,4.215c-0.32,1.264-1.298,1.918-1.956,2.083c-0.341,0.086-0.619,0.076-0.797,0.039
						C113.391,187.843,113.305,187.8,113.309,187.785z"/>
				</g>
			</g>
		</g>
		<g>
			<g>
				<g>
					<g>
						<g>
							<path style="fill:#E8505B;" d="M146.741,442.214l-0.028-1.986l-15.814-0.303l-0.03,6.175l0.977,0.064
								c4.35,0.245,22.134,0.938,25.042,0.058C160.132,445.24,146.741,442.214,146.741,442.214z"/>
						</g>
					</g>
					<g style="opacity:0.6;">
						<g>
							<path style="fill:#FFFFFF;" d="M136.568,446.179c-0.224-1.317-0.955-2.542-2.009-3.363c-1.054-0.821-2.352-1.254-3.684-1.149
								l-0.007,4.406L136.568,446.179z"/>
						</g>
					</g>
				</g>
				<g style="opacity:0.6;">
					<g>
						<path style="fill:#FFFFFF;" d="M153.26,443.915c0,0,4.693,1.358,4.107,2.13c-0.586,0.773-18.584,0.749-26.522,0.043
							l0.026-0.352l20.993,0.207C151.864,445.944,152.343,443.953,153.26,443.915z"/>
					</g>
				</g>
				<g>
					<g>
						<g>
							<path style="fill:#263238;" d="M130.757,445.613c0,0.007,0.093,0.017,0.271,0.03c0.234,0.014,0.49,0.03,0.778,0.048
								c0.779,0.035,1.736,0.077,2.865,0.127c2.42,0.09,5.765,0.171,9.459,0.179c3.696,0.007,7.042-0.059,9.462-0.139
								c1.13-0.046,2.087-0.084,2.865-0.115c0.289-0.017,0.545-0.031,0.779-0.045c0.178-0.012,0.271-0.022,0.271-0.029
								c0-0.007-0.094-0.01-0.272-0.01c-0.234,0.003-0.49,0.006-0.78,0.009c-0.779,0.015-1.736,0.033-2.866,0.054
								c-2.42,0.046-5.764,0.09-9.458,0.083c-3.693-0.008-7.036-0.067-9.456-0.123c-1.13-0.026-2.087-0.048-2.866-0.067
								c-0.289-0.005-0.546-0.009-0.78-0.012C130.851,445.604,130.757,445.607,130.757,445.613z"/>
						</g>
					</g>
				</g>
				<g>
					<g>
						<g>
							<path style="fill:#263238;" d="M151.863,446.247c0.058,0.007,0.104-0.677,0.537-1.367c0.421-0.698,1.011-1.047,0.978-1.096
								c-0.011-0.047-0.687,0.249-1.141,0.996C151.775,445.522,151.816,446.259,151.863,446.247z"/>
						</g>
					</g>
				</g>
				<g>
					<g>
						<g>
							<path style="fill:#263238;" d="M146.914,443.513c0.044,0.028,0.267-0.242,0.498-0.604c0.23-0.362,0.381-0.678,0.337-0.707
								c-0.044-0.028-0.267,0.242-0.498,0.604C147.02,443.168,146.87,443.485,146.914,443.513z"/>
						</g>
					</g>
				</g>
				<g>
					<g>
						<g>
							<path style="fill:#263238;" d="M145.639,442.836c0.035,0.039,0.284-0.126,0.556-0.37c0.272-0.244,0.464-0.473,0.429-0.512
								c-0.035-0.039-0.284,0.126-0.556,0.37C145.796,442.568,145.604,442.797,145.639,442.836z"/>
						</g>
					</g>
				</g>
				<g>
					<g>
						<g>
							<path style="fill:#263238;" d="M144.834,441.347c-0.001,0.053,0.368,0.1,0.822,0.106c0.455,0.006,0.824-0.033,0.825-0.085
								s-0.367-0.1-0.822-0.106C145.204,441.257,144.835,441.295,144.834,441.347z"/>
						</g>
					</g>
				</g>
				<g>
					<g>
						<g>
							<path style="fill:#263238;" d="M144.558,440.298c-0.018,0.047,0.383,0.229,0.917,0.268c0.534,0.042,0.958-0.076,0.948-0.125
								c-0.009-0.054-0.426-0.024-0.933-0.065C144.983,440.338,144.575,440.245,144.558,440.298z"/>
						</g>
					</g>
				</g>
				<g>
					<g>
						<g>
							<path style="fill:#263238;" d="M147.451,442.138c-0.001,0.021,0.387,0.07,1.013-0.005c0.312-0.037,0.681-0.111,1.079-0.236
								c0.197-0.07,0.404-0.122,0.618-0.254c0.1-0.067,0.212-0.16,0.251-0.314c0.042-0.152-0.039-0.322-0.153-0.405
								c-0.968-0.503-1.938,0.04-2.298,0.54c-0.198,0.255-0.289,0.504-0.331,0.675c-0.041,0.173-0.038,0.272-0.027,0.274
								c0.036,0.013,0.069-0.399,0.463-0.864c0.194-0.228,0.488-0.449,0.866-0.561c0.358-0.105,0.867-0.133,1.207,0.084
								c0.161,0.119,0.098,0.309-0.081,0.415c-0.167,0.107-0.383,0.172-0.57,0.242c-0.383,0.131-0.741,0.217-1.044,0.27
								C147.837,442.107,147.451,442.107,147.451,442.138z"/>
						</g>
					</g>
				</g>
				<g>
					<g>
						<g>
							<path style="fill:#263238;" d="M147.713,442.189c0.014,0.011,0.164-0.247,0.118-0.703c-0.024-0.224-0.106-0.489-0.275-0.74
								c-0.179-0.225-0.408-0.535-0.843-0.518c-0.235,0.03-0.35,0.297-0.313,0.467c0.018,0.177,0.098,0.33,0.171,0.453
								c0.15,0.253,0.32,0.458,0.478,0.614c0.317,0.311,0.568,0.43,0.579,0.411c0.018-0.025-0.202-0.182-0.48-0.503
								c-0.139-0.16-0.289-0.364-0.423-0.608c-0.139-0.214-0.233-0.599,0.021-0.645c0.254-0.024,0.512,0.229,0.667,0.431
								c0.159,0.219,0.247,0.456,0.286,0.659C147.774,441.919,147.68,442.181,147.713,442.189z"/>
						</g>
					</g>
				</g>
				<g>
					<g>
						<g>
							<path style="fill:#263238;" d="M130.654,441.6c0.003,0.036,0.451-0.042,1.164,0.043c0.706,0.079,1.687,0.37,2.54,1.051
								c0.852,0.682,1.352,1.575,1.585,2.246c0.24,0.676,0.262,1.13,0.298,1.126c0.012-0.001,0.017-0.114,0.001-0.318
								c-0.016-0.204-0.064-0.498-0.171-0.85c-0.206-0.7-0.705-1.641-1.594-2.353c-0.889-0.71-1.918-0.989-2.646-1.036
								c-0.367-0.026-0.664-0.008-0.867,0.021C130.761,441.558,130.652,441.588,130.654,441.6z"/>
						</g>
					</g>
				</g>
				<g>
					<g>
						<g>
							<path style="fill:#263238;" d="M138.249,444.125c-0.007,0.049,1.02,0.219,2.301,0.232c1.281,0.016,2.311-0.132,2.306-0.182
								c-0.005-0.055-1.035,0.006-2.304-0.009C139.283,444.154,138.256,444.07,138.249,444.125z"/>
						</g>
					</g>
				</g>
				<g>
					<g>
						<g>
							<path style="fill:#263238;" d="M135.16,444.117c-0.038,0.038,0.084,0.218,0.189,0.455c0.108,0.235,0.162,0.446,0.216,0.442
								c0.051,0,0.082-0.249-0.042-0.521C135.4,444.22,135.194,444.078,135.16,444.117z"/>
						</g>
					</g>
				</g>
				<g>
					<g>
						<g>
							<path style="fill:#263238;" d="M133.997,442.666c-0.038,0.037,0.064,0.201,0.227,0.367c0.163,0.166,0.325,0.27,0.363,0.233
								c0.037-0.037-0.064-0.201-0.227-0.367C134.197,442.733,134.035,442.629,133.997,442.666z"/>
						</g>
					</g>
				</g>
				<g>
					<g>
						<g>
							<path style="fill:#263238;" d="M132.332,442.002c0.011,0.053,0.221,0.052,0.452,0.134c0.233,0.076,0.398,0.205,0.439,0.17
								c0.042-0.029-0.09-0.254-0.378-0.35C132.558,441.856,132.316,441.953,132.332,442.002z"/>
						</g>
					</g>
				</g>
				<g>
					<g>
						<g>
							<path style="fill:#263238;" d="M131.147,441.688c-0.019,0.049,0.071,0.13,0.202,0.181c0.131,0.051,0.252,0.052,0.271,0.003
								c0.019-0.049-0.071-0.13-0.202-0.181C131.287,441.64,131.166,441.639,131.147,441.688z"/>
						</g>
					</g>
				</g>
			</g>
		</g>
		<path style="opacity:0.3;" d="M113.483,255.047c0,0,1.794,13.87,15.293,13.374s26.92-3.046,26.92-3.046l-0.14-2.623
			L113.483,255.047z"/>
		<path style="fill:#FFBE9D;" d="M191.678,246.236c-1.196-1.923-9.45,2.673-10.178,3.01c-0.706,0.327-1.24-0.702-0.567-0.971
			c0.968-0.388,11.027-4.706,9.87-6.606c-0.641-1.053-2.426,0.274-2.426,0.274s-9.114,4.734-9.63,3.819
			c-0.524-0.929,4.734-3.889,6.577-4.761c1.822-0.862,2.152-2.079,1.1-2.569c-0.718-0.334-6.426,2.205-8.229,3.111
			c-1.803,0.905-6.703,3.477-5.319,0.244c1.384-3.233,1.23-6.24,0.623-7.024c-0.608-0.784-1.921-0.225-1.891,0.867
			c0.024,0.882-0.393,2.365-0.752,3.465c-0.296,0.908-0.737,1.763-1.32,2.52c-0.679,0.882-1.289,1.602-1.824,2.202
			c-5.262,1.839-20.27,6.49-34.297,5.211c-2.533-0.231-8.974-17.187-8.974-17.187l-17.464,9.003c0,0-0.314,0.943,7.646,16.438
			c10.836,21.092,59.803-0.792,59.803-0.792l-0.018-0.051c4.08-0.878,8.586-1.94,10.976-2.803c4.924-1.777,4.772-2.221,4.467-2.759
			c-0.819-1.445-8.781,2.799-7.599,0.894C183.436,249.866,192.596,247.712,191.678,246.236z"/>
	</g>
</g>
</svg>
