<svg width="70" height="28" viewBox="0 0 70 28" fill="none" xmlns="http://www.w3.org/2000/svg">
<path d="M0.88 -1.90735e-06H7.84C10.2667 -1.90735e-06 12.1467 0.613331 13.48 1.84C14.8133 3.06667 15.48 4.86666 15.48 7.24V20.76C15.48 23.1333 14.8133 24.9333 13.48 26.16C12.1467 27.36 10.2667 27.9733 7.84 28H0.88V-1.90735e-06ZM7.84 25.28C9.06667 25.28 10.0533 24.9333 10.8 24.24C11.5733 23.52 11.96 22.5733 11.96 21.4V6.6C11.96 5.42666 11.5733 4.49333 10.8 3.8C10.0533 3.08 9.06667 2.72 7.84 2.72H4.44V25.28H7.84ZM22.5438 22.765C22.5338 22.115 22.3788 21.635 22.0788 21.325C21.7788 21.015 21.4138 20.86 20.9838 20.86C20.5638 20.86 20.1688 21.03 19.7988 21.37C19.4288 21.71 19.1888 22.22 19.0788 22.9L20.8188 22.78L22.5438 22.765ZM19.0038 23.74C19.0038 24.67 19.1938 25.39 19.5738 25.9C19.9638 26.4 20.5288 26.65 21.2688 26.65C22.0088 26.65 22.7388 26.41 23.4588 25.93L23.5938 26.2C22.8638 27.03 21.9688 27.445 20.9088 27.445C20.1588 27.445 19.4788 27.17 18.8688 26.62C18.5588 26.34 18.3088 25.975 18.1188 25.525C17.9388 25.065 17.8488 24.55 17.8488 23.98C17.8488 22.81 18.1888 21.9 18.8688 21.25C19.5488 20.59 20.2788 20.26 21.0588 20.26C21.8388 20.26 22.4688 20.51 22.9488 21.01C23.4388 21.5 23.6838 22.205 23.6838 23.125C23.6238 23.235 23.5688 23.325 23.5188 23.395H19.0188C19.0088 23.465 19.0038 23.58 19.0038 23.74ZM27.2043 26.875C27.7043 26.875 28.0993 26.77 28.3893 26.56C28.6793 26.34 28.8243 26.075 28.8243 25.765C28.8243 25.455 28.7043 25.195 28.4643 24.985C28.2243 24.775 27.9293 24.59 27.5793 24.43C27.2293 24.27 26.8793 24.105 26.5293 23.935C26.1893 23.755 25.8993 23.52 25.6593 23.23C25.4193 22.93 25.2993 22.58 25.2993 22.18C25.2993 21.55 25.5243 21.075 25.9743 20.755C26.4243 20.425 26.9643 20.26 27.5943 20.26C28.2343 20.26 28.8443 20.36 29.4243 20.56C29.4343 20.73 29.4393 20.96 29.4393 21.25C29.4393 21.54 29.4093 21.875 29.3493 22.255C29.2693 22.255 29.1543 22.24 29.0043 22.21C29.0143 22.11 29.0193 22.015 29.0193 21.925C29.0193 21.175 28.5643 20.8 27.6543 20.8C27.2543 20.8 26.9243 20.91 26.6643 21.13C26.4143 21.34 26.2893 21.605 26.2893 21.925C26.2893 22.235 26.4093 22.5 26.6493 22.72C26.8993 22.94 27.1993 23.125 27.5493 23.275C27.9093 23.425 28.2643 23.585 28.6143 23.755C28.9743 23.925 29.2743 24.155 29.5143 24.445C29.7643 24.725 29.8893 25.055 29.8893 25.435C29.8893 26.065 29.6293 26.56 29.1093 26.92C28.5993 27.27 27.9693 27.445 27.2193 27.445C26.4693 27.445 25.7693 27.34 25.1193 27.13C25.0993 26.9 25.0893 26.635 25.0893 26.335C25.0893 26.025 25.1193 25.685 25.1793 25.315C25.2693 25.315 25.3843 25.325 25.5243 25.345C25.5243 25.405 25.5243 25.465 25.5243 25.525C25.5243 25.995 25.6793 26.34 25.9893 26.56C26.3093 26.77 26.7143 26.875 27.2043 26.875ZM32.3492 25.48C32.3492 25.85 32.4542 26.14 32.6642 26.35C32.8842 26.55 33.1742 26.65 33.5342 26.65C34.0842 26.65 34.5442 26.45 34.9142 26.05V23.605L33.8492 23.875C32.8492 24.145 32.3492 24.68 32.3492 25.48ZM35.9942 27.445C35.7342 27.445 35.5092 27.375 35.3192 27.235C35.1292 27.085 35.0042 26.88 34.9442 26.62C34.4442 27.17 33.8792 27.445 33.2492 27.445C32.6292 27.445 32.1342 27.27 31.7642 26.92C31.3942 26.56 31.2092 26.1 31.2092 25.54C31.2092 24.44 31.9692 23.725 33.4892 23.395L34.9142 23.08V22.42C34.9142 21.97 34.8192 21.64 34.6292 21.43C34.4492 21.22 34.1042 21.115 33.5942 21.115C33.0842 21.115 32.4842 21.235 31.7942 21.475L31.5992 21.175C32.3392 20.565 33.1692 20.26 34.0892 20.26C34.6992 20.26 35.1692 20.44 35.4992 20.8C35.8392 21.16 36.0092 21.66 36.0092 22.3V25.855C36.0092 26.155 36.0442 26.365 36.1142 26.485C36.1842 26.605 36.2942 26.665 36.4442 26.665C36.6042 26.665 36.7992 26.64 37.0292 26.59L37.1192 26.77C36.7792 27.22 36.4042 27.445 35.9942 27.445ZM38.9918 26.08V17.515C38.8818 17.505 38.7418 17.5 38.5718 17.5C38.4018 17.5 38.1918 17.505 37.9418 17.515C37.9418 17.395 37.9618 17.255 38.0018 17.095C38.6618 16.825 39.3518 16.64 40.0718 16.54V26.59C40.3518 26.71 40.6918 26.785 41.0918 26.815C41.0918 26.995 41.0768 27.145 41.0468 27.265H37.9718C37.9518 27.115 37.9618 26.965 38.0018 26.815C38.3718 26.775 38.6268 26.705 38.7668 26.605C38.9168 26.505 38.9918 26.33 38.9918 26.08ZM44.2173 18.76C44.0673 18.92 43.8823 19 43.6623 19C43.4423 19 43.2523 18.92 43.0923 18.76C42.9323 18.6 42.8523 18.41 42.8523 18.19C42.8523 17.97 42.9323 17.78 43.0923 17.62C43.2523 17.46 43.4423 17.38 43.6623 17.38C43.8823 17.38 44.0673 17.46 44.2173 17.62C44.3773 17.77 44.4573 17.96 44.4573 18.19C44.4573 18.41 44.3773 18.6 44.2173 18.76ZM43.1373 26.08V21.325C42.9773 21.315 42.8073 21.31 42.6273 21.31C42.4573 21.31 42.2773 21.315 42.0873 21.325C42.0873 21.225 42.1073 21.085 42.1473 20.905C42.8473 20.645 43.5373 20.46 44.2173 20.35V26.59C44.4973 26.71 44.8373 26.785 45.2373 26.815C45.2373 26.995 45.2223 27.145 45.1923 27.265H42.1173C42.0973 27.115 42.1073 26.965 42.1473 26.815C42.5173 26.775 42.7723 26.705 42.9123 26.605C43.0623 26.505 43.1373 26.33 43.1373 26.08ZM52.7125 22.495V26.59C53.0325 26.71 53.3825 26.785 53.7625 26.815C53.7625 26.955 53.7525 27.105 53.7325 27.265H50.6725C50.6625 27.145 50.6675 26.995 50.6875 26.815C51.0475 26.775 51.2925 26.705 51.4225 26.605C51.5625 26.505 51.6325 26.33 51.6325 26.08V22.585C51.6325 22.095 51.5175 21.72 51.2875 21.46C51.0575 21.2 50.7375 21.07 50.3275 21.07C49.4575 21.07 48.8075 21.59 48.3775 22.63V26.59C48.6575 26.71 48.9975 26.785 49.3975 26.815C49.3975 26.995 49.3825 27.145 49.3525 27.265H46.2775C46.2575 27.115 46.2675 26.965 46.3075 26.815C46.6775 26.775 46.9325 26.705 47.0725 26.605C47.2225 26.505 47.2975 26.33 47.2975 26.08V21.31C47.0075 21.3 46.7825 21.295 46.6225 21.295C46.4625 21.295 46.3375 21.295 46.2475 21.295C46.2475 21.175 46.2675 21.045 46.3075 20.905C46.9675 20.645 47.6175 20.46 48.2575 20.35C48.3175 20.73 48.3575 21.22 48.3775 21.82C48.8875 20.78 49.6625 20.26 50.7025 20.26C51.2925 20.26 51.7725 20.45 52.1425 20.83C52.5225 21.21 52.7125 21.765 52.7125 22.495ZM61.0035 22.495V26.59C61.3235 26.71 61.6735 26.785 62.0535 26.815C62.0535 26.955 62.0435 27.105 62.0235 27.265H58.9635C58.9535 27.145 58.9585 26.995 58.9785 26.815C59.3385 26.775 59.5835 26.705 59.7135 26.605C59.8535 26.505 59.9235 26.33 59.9235 26.08V22.585C59.9235 22.095 59.8085 21.72 59.5785 21.46C59.3485 21.2 59.0285 21.07 58.6185 21.07C57.7485 21.07 57.0985 21.59 56.6685 22.63V26.59C56.9485 26.71 57.2885 26.785 57.6885 26.815C57.6885 26.995 57.6735 27.145 57.6435 27.265H54.5685C54.5485 27.115 54.5585 26.965 54.5985 26.815C54.9685 26.775 55.2235 26.705 55.3635 26.605C55.5135 26.505 55.5885 26.33 55.5885 26.08V17.56C55.2985 17.55 55.0735 17.545 54.9135 17.545C54.7535 17.545 54.6285 17.545 54.5385 17.545C54.5385 17.435 54.5585 17.3 54.5985 17.14C55.3185 16.87 56.0085 16.69 56.6685 16.6V21.805C57.1885 20.775 57.9635 20.26 58.9935 20.26C59.5835 20.26 60.0635 20.45 60.4335 20.83C60.8135 21.21 61.0035 21.765 61.0035 22.495ZM64.7488 26.02C65.1188 26.55 65.6388 26.815 66.3088 26.815C66.9788 26.815 67.4688 26.565 67.7788 26.065C68.0988 25.555 68.2588 24.875 68.2588 24.025C68.2588 23.005 68.0788 22.22 67.7188 21.67C67.3588 21.11 66.8438 20.83 66.1738 20.83C65.5138 20.83 65.0188 21.095 64.6888 21.625C64.3688 22.145 64.2088 22.84 64.2088 23.71C64.2088 24.71 64.3888 25.48 64.7488 26.02ZM66.2638 20.26C67.2238 20.26 67.9888 20.59 68.5588 21.25C69.1388 21.9 69.4288 22.765 69.4288 23.845C69.4288 24.925 69.1338 25.795 68.5438 26.455C67.9538 27.115 67.1688 27.445 66.1888 27.445C65.2188 27.445 64.4538 27.12 63.8938 26.47C63.3338 25.81 63.0538 24.94 63.0538 23.86C63.0538 22.78 63.3488 21.91 63.9388 21.25C64.5288 20.59 65.3038 20.26 66.2638 20.26Z" fill="black"/>
</svg>
